<?xml version="1.0" encoding="utf-8"?>
<!-- Generator: Adobe Illustrator 27.4.1, SVG Export Plug-In . SVG Version: 6.00 Build 0)  -->
<svg version="1.1"
	 id="svg4197" xmlns:sodipodi="http://sodipodi.sourceforge.net/DTD/sodipodi-0.dtd" xmlns:cc="http://creativecommons.org/ns#" xmlns:dc="http://purl.org/dc/elements/1.1/" xmlns:rdf="http://www.w3.org/1999/02/22-rdf-syntax-ns#" xmlns:inkscape="http://www.inkscape.org/namespaces/inkscape" xmlns:svg="http://www.w3.org/2000/svg"
	 xmlns="http://www.w3.org/2000/svg" xmlns:xlink="http://www.w3.org/1999/xlink" x="0px" y="0px" viewBox="0 0 620 620"
	 style="enable-background:new 0 0 620 620;" xml:space="preserve">
<style type="text/css">
	.st0{fill:#357491;}
	.st1{fill:#808080;}
</style>
<sodipodi:namedview  bordercolor="#666666" borderopacity="1.0" id="base" inkscape:current-layer="layer1" inkscape:cx="548.58925" inkscape:cy="301.36184" inkscape:document-units="px" inkscape:guide-bbox="true" inkscape:pageopacity="0.0" inkscape:pageshadow="2" inkscape:window-height="751" inkscape:window-maximized="1" inkscape:window-width="1280" inkscape:window-x="0" inkscape:window-y="0" inkscape:zoom="1" pagecolor="#ffffff" showgrid="false" showguides="true">
	<inkscape:grid  empspacing="5" enabled="true" id="grid4008" snapvisiblegridlinesonly="true" type="xygrid" visible="true">
		</inkscape:grid>
</sodipodi:namedview>
<path id="path22" inkscape:connector-curvature="0" class="st0" d="M116.2,187.5c-5.5,0-9.9-4.5-9.9-9.9c0-5.5,4.5-9.9,9.9-9.9
	c5.5,0,9.9,4.5,9.9,9.9C126.1,183.1,121.7,187.5,116.2,187.5 M116.2,166.2c-6.3,0-11.3,5.1-11.3,11.3s5.1,11.3,11.3,11.3
	c6.3,0,11.3-5.1,11.3-11.3S122.5,166.2,116.2,166.2"/>
<path id="path26" inkscape:connector-curvature="0" class="st0" d="M116.2,162.9c0.4,0,0.7-0.3,0.7-0.7v-5.6c0-0.4-0.3-0.7-0.7-0.7
	s-0.7,0.3-0.7,0.7v5.6C115.5,162.6,115.8,162.9,116.2,162.9"/>
<path id="path30" inkscape:connector-curvature="0" class="st0" d="M116.2,192.1c-0.4,0-0.7,0.3-0.7,0.7v5.6c0,0.4,0.3,0.7,0.7,0.7
	s0.7-0.3,0.7-0.7v-5.6C116.9,192.4,116.6,192.1,116.2,192.1"/>
<path id="path34" inkscape:connector-curvature="0" class="st0" d="M123.9,165.1c0.1,0.1,0.2,0.1,0.4,0.1c0.2,0,0.5-0.1,0.6-0.3
	l3-4.8c0.2-0.3,0.1-0.8-0.2-1c-0.3-0.2-0.8-0.1-1,0.2l-3,4.8C123.4,164.5,123.5,164.9,123.9,165.1"/>
<path id="path38" inkscape:connector-curvature="0" class="st0" d="M108.5,189.9c-0.3-0.2-0.8-0.1-1,0.2l-3,4.8
	c-0.2,0.3-0.1,0.8,0.2,1c0.1,0.1,0.2,0.1,0.4,0.1c0.2,0,0.5-0.1,0.6-0.3l3-4.8C109,190.5,108.9,190.1,108.5,189.9"/>
<path id="path42" inkscape:connector-curvature="0" class="st0" d="M129.7,171c0.1,0,0.2,0,0.3-0.1l4.9-2.6c0.3-0.2,0.5-0.6,0.3-1
	c-0.2-0.3-0.6-0.5-0.9-0.3l-4.9,2.6c-0.3,0.2-0.5,0.6-0.3,1C129.2,170.9,129.4,171,129.7,171"/>
<path id="path46" inkscape:connector-curvature="0" class="st0" d="M102.4,184.1l-4.9,2.6c-0.3,0.2-0.5,0.6-0.3,1
	c0.1,0.2,0.4,0.4,0.6,0.4c0.1,0,0.2,0,0.3-0.1l4.9-2.6c0.3-0.2,0.5-0.6,0.3-1C103.1,184.1,102.7,183.9,102.4,184.1"/>
<path id="path50" inkscape:connector-curvature="0" class="st0" d="M137.1,176.8L137.1,176.8l-5.6,0c-0.4,0-0.7,0.3-0.7,0.7
	c0,0.4,0.3,0.7,0.7,0.7h0l5.6,0c0.4,0,0.7-0.3,0.7-0.7C137.8,177.1,137.5,176.8,137.1,176.8"/>
<path id="path54" inkscape:connector-curvature="0" class="st0" d="M101.6,177.6c0-0.4-0.3-0.7-0.7-0.7h0l-5.6,0
	c-0.4,0-0.7,0.3-0.7,0.7c0,0.4,0.3,0.7,0.7,0.7h0l5.6,0C101.3,178.3,101.6,177.9,101.6,177.6"/>
<path id="path58" inkscape:connector-curvature="0" class="st0" d="M134.9,186.9l-4.9-2.7c-0.3-0.2-0.8-0.1-1,0.3
	c-0.2,0.3-0.1,0.8,0.3,1l4.9,2.7c0.1,0.1,0.2,0.1,0.3,0.1c0.2,0,0.5-0.1,0.6-0.4C135.4,187.5,135.2,187.1,134.9,186.9"/>
<path id="path62" inkscape:connector-curvature="0" class="st0" d="M103.1,169.5l-4.9-2.7c-0.3-0.2-0.8-0.1-1,0.3
	c-0.2,0.3-0.1,0.8,0.3,1l4.9,2.7c0.1,0.1,0.2,0.1,0.3,0.1c0.2,0,0.5-0.1,0.6-0.4C103.6,170.2,103.5,169.7,103.1,169.5"/>
<path id="path66" inkscape:connector-curvature="0" class="st0" d="M124.9,190.1c-0.2-0.3-0.6-0.4-1-0.2c-0.3,0.2-0.4,0.6-0.2,1
	l3,4.8c0.1,0.2,0.4,0.3,0.6,0.3c0.1,0,0.3,0,0.4-0.1c0.3-0.2,0.4-0.6,0.2-1L124.9,190.1L124.9,190.1z"/>
<path id="path70" inkscape:connector-curvature="0" class="st0" d="M107.5,164.9c0.1,0.2,0.4,0.3,0.6,0.3c0.1,0,0.3,0,0.4-0.1
	c0.3-0.2,0.4-0.6,0.2-1l-3-4.8c-0.2-0.3-0.6-0.4-1-0.2c-0.3,0.2-0.4,0.6-0.2,1C104.5,160.1,107.5,164.9,107.5,164.9z"/>
<path id="path74" inkscape:connector-curvature="0" class="st0" d="M205.8,194.8l20.7,0c0.1,0,0.3,0,0.4,0v0c3.4,0,6.1-2.8,6.1-6.1
	s-2.8-6.1-6.1-6.1c-0.5,0-1,0.1-1.5,0.2c-0.2,0-0.3,0-0.5-0.1c-0.1-0.1-0.2-0.2-0.3-0.4c-0.7-4.4-4.4-7.5-8.8-7.5
	c-4.9,0-8.9,4-8.9,8.9c0,0.2,0,0.5,0,0.7c0,0.2-0.1,0.4-0.2,0.5s-0.3,0.2-0.5,0.2c-0.2,0-0.4,0-0.5,0c-2.7,0-4.9,2.2-4.9,4.9
	C200.9,192.6,203.1,194.8,205.8,194.8 M205.8,183.8c0,0,0-0.1,0-0.1c0-5.6,4.5-10.1,10.1-10.1c4.8,0,8.9,3.3,9.9,7.9
	c0.4-0.1,0.8-0.1,1.1-0.1c4,0,7.3,3.3,7.3,7.3c0,4-3.3,7.3-7.3,7.3h0c-0.1,0-2.4,0-5.5,0l-15.7,0c-3.4,0-6.1-2.8-6.1-6.1
	C199.7,186.5,202.4,183.8,205.8,183.8"/>
<path id="path78" inkscape:connector-curvature="0" class="st0" d="M193.8,177.7c0-5.4,4.4-9.7,9.7-9.7c3.3,0,6.1,1.4,7.9,4.1
	c0.2,0.3,0.1,0.7-0.2,0.8c-0.3,0.2-0.7,0.1-0.8-0.2c-1.6-2.4-4.1-3.6-6.9-3.6c-4.7,0-8.5,3.8-8.5,8.5c0,2.9,1.5,5.6,3.9,7.2
	c0.3,0.2,0.4,0.6,0.2,0.8c-0.1,0.2-0.3,0.3-0.5,0.3c-0.1,0-0.2,0-0.3-0.1C195.5,184.1,193.8,181,193.8,177.7"/>
<path id="path82" inkscape:connector-curvature="0" class="st0" d="M203.4,165c-0.3,0-0.6-0.3-0.6-0.6v-4.8c0-0.3,0.3-0.6,0.6-0.6
	c0.3,0,0.6,0.3,0.6,0.6v4.8C204,164.7,203.8,165,203.4,165"/>
<path id="path86" inkscape:connector-curvature="0" class="st0" d="M196.9,166.9c-0.1,0.1-0.2,0.1-0.3,0.1c-0.2,0-0.4-0.1-0.5-0.3
	l-2.5-4.1c-0.2-0.3-0.1-0.7,0.2-0.8c0.3-0.2,0.7-0.1,0.8,0.2l2.5,4.1C197.2,166.3,197.1,166.7,196.9,166.9"/>
<path id="path90" inkscape:connector-curvature="0" class="st0" d="M191.9,171.9c-0.1,0-0.2,0-0.3-0.1l-4.2-2.3
	c-0.3-0.2-0.4-0.5-0.2-0.8c0.2-0.3,0.5-0.4,0.8-0.2l4.2,2.3c0.3,0.2,0.4,0.5,0.2,0.8C192.3,171.8,192.1,171.9,191.9,171.9"/>
<path id="path94" inkscape:connector-curvature="0" class="st0" d="M185.5,176.9L185.5,176.9l4.8,0c0.3,0,0.6,0.3,0.6,0.6
	c0,0.3-0.3,0.6-0.6,0.6h0l-4.8,0c-0.3,0-0.6-0.3-0.6-0.6C184.9,177.1,185.2,176.9,185.5,176.9"/>
<path id="path98" inkscape:connector-curvature="0" class="st0" d="M187.4,185.6l4.2-2.3c0.3-0.2,0.7-0.1,0.8,0.2
	c0.2,0.3,0.1,0.7-0.2,0.8l-4.2,2.3c-0.1,0-0.2,0.1-0.3,0.1c-0.2,0-0.4-0.1-0.5-0.3C187,186.1,187.1,185.7,187.4,185.6"/>
<path id="path102" inkscape:connector-curvature="0" class="st0" d="M219.5,169.4l-4.2,2.3c-0.1,0.1-0.2,0.1-0.3,0.1
	c-0.2,0-0.4-0.1-0.5-0.3c-0.2-0.3-0.1-0.7,0.2-0.8l4.2-2.3c0.3-0.2,0.7-0.1,0.8,0.2C219.9,168.9,219.8,169.3,219.5,169.4"/>
<path id="path106" inkscape:connector-curvature="0" class="st0" d="M196,188.3c0.2-0.3,0.5-0.4,0.8-0.2c0.3,0.2,0.4,0.5,0.2,0.8
	l-2.6,4.1c-0.1,0.2-0.3,0.3-0.5,0.3c-0.1,0-0.2,0-0.3-0.1c-0.3-0.2-0.4-0.5-0.2-0.8L196,188.3L196,188.3z"/>
<path id="path110" inkscape:connector-curvature="0" class="st0" d="M210.9,166.7c-0.1,0.2-0.3,0.3-0.5,0.3c-0.1,0-0.2,0-0.3-0.1
	c-0.3-0.2-0.4-0.5-0.2-0.8l2.6-4.1c0.2-0.3,0.5-0.4,0.8-0.2c0.3,0.2,0.4,0.5,0.2,0.8L210.9,166.7L210.9,166.7z"/>
<path id="path114" inkscape:connector-curvature="0" class="st0" d="M494.3,193.5c-0.3-0.1-0.6,0-0.7,0.2l-2,3.9
	c-0.1,0.3,0,0.6,0.2,0.7c0.1,0,0.2,0.1,0.3,0.1c0.2,0,0.4-0.1,0.5-0.3l2-3.9C494.6,193.9,494.5,193.6,494.3,193.5"/>
<path id="path118" inkscape:connector-curvature="0" class="st0" d="M501.3,193.5c-0.3-0.1-0.6,0-0.7,0.2l-2,3.9
	c-0.1,0.3,0,0.6,0.2,0.7c0.1,0,0.2,0.1,0.2,0.1c0.2,0,0.4-0.1,0.5-0.3l2-3.9C501.7,193.9,501.6,193.6,501.3,193.5"/>
<path id="path122" inkscape:connector-curvature="0" class="st0" d="M508.4,193.5c-0.3-0.1-0.6,0-0.7,0.2l-2,3.9
	c-0.1,0.3,0,0.6,0.2,0.7c0.1,0,0.2,0.1,0.2,0.1c0.2,0,0.4-0.1,0.5-0.3l2-3.9C508.8,193.9,508.7,193.6,508.4,193.5"/>
<path id="path130" inkscape:connector-curvature="0" class="st0" d="M491.2,189.6l19.1,0c0.1,0,0.3,0,0.4,0v0c3.1,0,5.7-2.5,5.7-5.7
	c0-3.1-2.5-5.7-5.7-5.7c-0.4,0-0.9,0.1-1.4,0.2c-0.1,0-0.3,0-0.4-0.1c-0.1-0.1-0.2-0.2-0.2-0.4c-0.6-4-4-6.9-8.1-6.9
	c-4.5,0-8.2,3.7-8.2,8.2c0,0.2,0,0.4,0,0.7c0,0.2,0,0.3-0.2,0.4c-0.1,0.1-0.3,0.2-0.4,0.2c-0.2,0-0.3,0-0.5,0c-2.5,0-4.5,2-4.5,4.5
	C486.7,187.6,488.7,189.6,491.2,189.6 M491.2,179.4v-0.1c0-5.2,4.2-9.3,9.3-9.3c4.4,0,8.2,3,9.1,7.3c0.4-0.1,0.7-0.1,1.1-0.1
	c3.7,0,6.8,3,6.8,6.8c0,3.7-3,6.8-6.8,6.8h0h-5h-14.4c-3.1,0-5.6-2.5-5.6-5.7C485.6,182,488.1,179.4,491.2,179.4"/>
<path id="path134" inkscape:connector-curvature="0" class="st0" d="M480.2,173.8c0-4.9,4-9,9-9c3,0,5.6,1.3,7.3,3.8
	c0.2,0.3,0.1,0.6-0.2,0.8c-0.3,0.2-0.6,0.1-0.8-0.2c-1.5-2.2-3.7-3.3-6.4-3.3c-4.3,0-7.9,3.5-7.9,7.9c0,2.7,1.3,5.2,3.6,6.6
	c0.3,0.2,0.3,0.5,0.2,0.8c-0.1,0.2-0.3,0.3-0.5,0.3c-0.1,0-0.2,0-0.3-0.1C481.7,179.7,480.2,176.9,480.2,173.8"/>
<path id="path138" inkscape:connector-curvature="0" class="st0" d="M489,162.1c-0.3,0-0.6-0.2-0.6-0.6v-4.4c0-0.3,0.3-0.6,0.6-0.6
	c0.3,0,0.6,0.2,0.6,0.6v4.4C489.6,161.8,489.3,162.1,489,162.1"/>
<path id="path142" inkscape:connector-curvature="0" class="st0" d="M482.9,163.8c-0.1,0.1-0.2,0.1-0.3,0.1c-0.2,0-0.4-0.1-0.5-0.3
	l-2.3-3.8c-0.2-0.3-0.1-0.6,0.2-0.8c0.3-0.2,0.6-0.1,0.8,0.2l2.3,3.8C483.3,163.3,483.2,163.7,482.9,163.8"/>
<path id="path146" inkscape:connector-curvature="0" class="st0" d="M478.3,168.5c-0.1,0-0.2,0-0.3-0.1l-3.9-2.1
	c-0.3-0.1-0.4-0.5-0.2-0.8c0.1-0.3,0.5-0.4,0.8-0.2l3.9,2.1c0.3,0.1,0.4,0.5,0.2,0.8C478.7,168.4,478.5,168.5,478.3,168.5"/>
<path id="path150" inkscape:connector-curvature="0" class="st0" d="M472.5,173L472.5,173l4.4,0c0.3,0,0.6,0.2,0.6,0.6
	c0,0.3-0.2,0.6-0.6,0.6h0l-4.4,0c-0.3,0-0.6-0.3-0.6-0.6C471.9,173.3,472.2,173,472.5,173"/>
<path id="path154" inkscape:connector-curvature="0" class="st0" d="M474.2,181.1l3.9-2.1c0.3-0.1,0.6,0,0.8,0.2
	c0.1,0.3,0,0.6-0.2,0.8l-3.9,2.1c-0.1,0-0.2,0.1-0.3,0.1c-0.2,0-0.4-0.1-0.5-0.3C473.9,181.6,474,181.2,474.2,181.1"/>
<path id="path158" inkscape:connector-curvature="0" class="st0" d="M503.8,166.2l-3.9,2.1c-0.1,0-0.2,0.1-0.3,0.1
	c-0.2,0-0.4-0.1-0.5-0.3c-0.1-0.3,0-0.6,0.2-0.8l3.9-2.1c0.3-0.1,0.6,0,0.8,0.2C504.2,165.7,504.1,166,503.8,166.2"/>
<path id="path162" inkscape:connector-curvature="0" class="st0" d="M482.1,183.6c0.2-0.3,0.5-0.3,0.8-0.2c0.3,0.2,0.3,0.5,0.2,0.8
	l-2.4,3.8c-0.1,0.2-0.3,0.3-0.5,0.3c-0.1,0-0.2,0-0.3-0.1c-0.3-0.2-0.3-0.5-0.2-0.8L482.1,183.6z"/>
<path id="path166" inkscape:connector-curvature="0" class="st0" d="M495.9,163.7c-0.1,0.2-0.3,0.3-0.5,0.3c-0.1,0-0.2,0-0.3-0.1
	c-0.3-0.2-0.3-0.5-0.2-0.8l2.4-3.8c0.2-0.3,0.5-0.3,0.8-0.2c0.3,0.2,0.3,0.5,0.2,0.8L495.9,163.7L495.9,163.7z"/>
<path id="path174" inkscape:connector-curvature="0" sodipodi:nodetypes="csccsscccsscccssccsscsssccsc" class="st0" d="
	M395.5,187.5h18.6c0.1,0,0.3,0,0.4,0v0c3,0,5.5-2.5,5.5-5.5c0-3-2.5-5.5-5.5-5.5c-0.4,0-0.9,0.1-1.3,0.2c-0.1,0-0.3,0-0.4-0.1
	c-0.1-0.1-0.2-0.2-0.2-0.4c-0.6-3.9-3.9-6.8-7.9-6.8c-4.4,0-8,3.6-8,8c0,0.2,0,0.4,0,0.6c0,0.2,0,0.3-0.2,0.4
	c-0.1,0.1-0.3,0.2-0.4,0.2c-0.2,0-0.3,0-0.5,0c-2.4,0-4.4,2-4.4,4.4C391.1,185.5,393.1,187.5,395.5,187.5 M395.5,177.6v-0.1
	c0-5,4.1-9.1,9.1-9.1c4.3,0,8,3,8.9,7.1c0.3-0.1,0.7-0.1,1-0.1c3.6,0,6.6,3,6.6,6.6c0,3.6-3,6.6-6.6,6.6h0l-19,0
	c-3,0-5.5-2.5-5.5-5.5C390,180,392.5,177.6,395.5,177.6"/>
<path id="path178" inkscape:connector-curvature="0" class="st0" d="M384.7,172.1c0-4.8,3.9-8.7,8.7-8.7c2.9,0,5.5,1.3,7.1,3.7
	c0.2,0.2,0.1,0.6-0.2,0.7c-0.2,0.2-0.6,0.1-0.7-0.2c-1.4-2.2-3.6-3.2-6.2-3.2c-4.2,0-7.6,3.4-7.6,7.7c0,2.6,1.3,5,3.5,6.4
	c0.2,0.2,0.3,0.5,0.2,0.7c-0.1,0.2-0.3,0.2-0.5,0.2c-0.1,0-0.2,0-0.3-0.1C386.2,177.8,384.7,175.1,384.7,172.1"/>
<path id="path182" inkscape:connector-curvature="0" class="st0" d="M393.4,160.7c-0.3,0-0.5-0.2-0.5-0.5v-4.3
	c0-0.3,0.2-0.5,0.5-0.5c0.3,0,0.5,0.2,0.5,0.5v4.3C393.9,160.5,393.7,160.7,393.4,160.7"/>
<path id="path186" inkscape:connector-curvature="0" class="st0" d="M387.4,162.4c-0.1,0.1-0.2,0.1-0.3,0.1c-0.2,0-0.4-0.1-0.5-0.3
	l-2.3-3.7c-0.2-0.3-0.1-0.6,0.2-0.7c0.3-0.2,0.6-0.1,0.7,0.2l2.3,3.7C387.8,161.9,387.7,162.2,387.4,162.4"/>
<path id="path190" inkscape:connector-curvature="0" class="st0" d="M383,166.9c-0.1,0-0.2,0-0.3-0.1l-3.8-2
	c-0.3-0.1-0.4-0.5-0.2-0.7c0.1-0.3,0.5-0.4,0.7-0.2l3.8,2c0.3,0.1,0.4,0.5,0.2,0.7C383.4,166.8,383.2,166.9,383,166.9"/>
<path id="path194" inkscape:connector-curvature="0" class="st0" d="M377.3,171.4L377.3,171.4l4.3,0c0.3,0,0.5,0.2,0.5,0.5
	c0,0.3-0.2,0.5-0.5,0.5h0l-4.3,0c-0.3,0-0.5-0.2-0.5-0.5C376.7,171.6,377,171.4,377.3,171.4"/>
<path id="path198" inkscape:connector-curvature="0" class="st0" d="M379,179.2l3.8-2.1c0.3-0.1,0.6,0,0.7,0.2
	c0.1,0.3,0,0.6-0.2,0.7l-3.8,2.1c-0.1,0-0.2,0.1-0.3,0.1c-0.2,0-0.4-0.1-0.5-0.3C378.6,179.7,378.7,179.3,379,179.2"/>
<path id="path202" inkscape:connector-curvature="0" class="st0" d="M407.8,164.7l-3.8,2.1c-0.1,0-0.2,0.1-0.3,0.1
	c-0.2,0-0.4-0.1-0.5-0.3c-0.1-0.3,0-0.6,0.2-0.7l3.8-2.1c0.3-0.1,0.6,0,0.7,0.2C408.1,164.2,408,164.5,407.8,164.7"/>
<path id="path206" inkscape:connector-curvature="0" class="st0" d="M386.7,181.6c0.2-0.3,0.5-0.3,0.7-0.2c0.3,0.2,0.3,0.5,0.2,0.7
	l-2.3,3.7c-0.1,0.2-0.3,0.3-0.5,0.3c-0.1,0-0.2,0-0.3-0.1c-0.3-0.2-0.3-0.5-0.2-0.7L386.7,181.6L386.7,181.6z"/>
<path id="path210" inkscape:connector-curvature="0" class="st0" d="M400.1,162.2c-0.1,0.2-0.3,0.3-0.5,0.3c-0.1,0-0.2,0-0.3-0.1
	c-0.3-0.2-0.3-0.5-0.2-0.7l2.3-3.7c0.2-0.3,0.5-0.3,0.7-0.2c0.3,0.2,0.3,0.5,0.2,0.7L400.1,162.2z"/>
<path id="path214" inkscape:connector-curvature="0" class="st0" d="M106.1,275.4c0-0.1,0.1-0.2,0.1-0.3 M115.3,275.4
	c0-0.1,0.1-0.2,0.1-0.3"/>
<path id="path218" inkscape:connector-curvature="0" class="st0" d="M489.2,273.8h22.7c0.2,0,0.3,0,0.5,0v0c3.7,0,6.7-3,6.7-6.7
	c0-3.7-3-6.7-6.7-6.7c-0.5,0-1.1,0.1-1.6,0.2c-0.2,0-0.4,0-0.5-0.1c-0.2-0.1-0.3-0.3-0.3-0.4c-0.8-4.8-4.8-8.3-9.7-8.3
	c-5.4,0-9.8,4.4-9.8,9.8c0,0.3,0,0.5,0,0.8c0,0.2-0.1,0.4-0.2,0.5s-0.3,0.2-0.5,0.2c-0.2,0-0.4,0-0.6,0c-3,0-5.4,2.4-5.4,5.4
	C483.8,271.4,486.3,273.8,489.2,273.8 M489.2,261.7c0,0,0-0.1,0-0.1c0-6.1,5-11.1,11.1-11.1c5.3,0,9.7,3.6,10.8,8.7
	c0.4-0.1,0.8-0.1,1.3-0.1c4.4,0,8,3.6,8,8c0,4.4-3.6,8-8,8h-6h-17.2c-3.7,0-6.7-3-6.7-6.7C482.5,264.8,485.5,261.7,489.2,261.7"/>
<path id="path222" inkscape:connector-curvature="0" class="st0" d="M481.2,254.6c0.4,0,0.8,0,1.3,0.1c1.1-5.1,5.6-8.7,10.8-8.7
	c2.3,0,4.5,0.7,6.4,2c0.3,0.2,0.4,0.6,0.2,0.9c-0.2,0.3-0.6,0.4-0.9,0.2c-1.6-1.2-3.6-1.8-5.6-1.8c-4.8,0-8.9,3.5-9.7,8.3
	c0,0.2-0.1,0.3-0.3,0.4c-0.2,0.1-0.3,0.1-0.5,0.1c-0.5-0.1-1.1-0.2-1.6-0.2c-3.7,0-6.7,3-6.7,6.7c0,3.5,2.6,6.3,6,6.7
	c0.4,0,0.6,0.4,0.6,0.7c0,0.3-0.3,0.6-0.7,0.6c0,0,0,0-0.1,0c-4.1-0.4-7.2-3.9-7.2-8C473.1,258.2,476.7,254.6,481.2,254.6"/>
<path id="path230" inkscape:connector-curvature="0" class="st0" d="M203,284.2c-0.2-0.2-0.4-0.2-0.6,0l-0.5,0.5l-0.5-0.5
	c-0.2-0.2-0.4-0.2-0.6,0c-0.2,0.2-0.2,0.4,0,0.6l0.5,0.5l-0.5,0.5c-0.2,0.2-0.2,0.4,0,0.6c0.1,0.1,0.2,0.1,0.3,0.1s0.2,0,0.3-0.1
	l0.5-0.5l0.5,0.5c0.1,0.1,0.2,0.1,0.3,0.1c0.1,0,0.2,0,0.3-0.1c0.2-0.2,0.2-0.5,0-0.6l-0.5-0.5l0.5-0.5
	C203.1,284.7,203.1,284.4,203,284.2"/>
<path id="path234" inkscape:connector-curvature="0" class="st0" d="M217.6,284.2c-0.2-0.2-0.4-0.2-0.6,0l-0.5,0.5l-0.5-0.5
	c-0.2-0.2-0.4-0.2-0.6,0c-0.2,0.2-0.2,0.4,0,0.6l0.5,0.5l-0.5,0.5c-0.2,0.2-0.2,0.4,0,0.6c0.1,0.1,0.2,0.1,0.3,0.1
	c0.1,0,0.2,0,0.3-0.1l0.5-0.5l0.5,0.5c0.1,0.1,0.2,0.1,0.3,0.1s0.2,0,0.3-0.1c0.2-0.2,0.2-0.5,0-0.6l-0.5-0.5l0.5-0.5
	C217.7,284.7,217.7,284.4,217.6,284.2"/>
<path id="path242" inkscape:connector-curvature="0" class="st0" d="M392.9,271.6H414c0.1,0,0.3,0,0.4,0v0c3.4,0,6.3-2.8,6.3-6.3
	c0-3.4-2.8-6.3-6.3-6.3c-0.5,0-1,0.1-1.5,0.2c-0.2,0-0.3,0-0.5-0.1c-0.1-0.1-0.2-0.2-0.3-0.4c-0.7-4.5-4.5-7.7-9-7.7
	c-5,0-9.1,4.1-9.1,9.1c0,0.2,0,0.5,0,0.7c0,0.2-0.1,0.4-0.2,0.5c-0.1,0.1-0.3,0.2-0.5,0.2c-0.2,0-0.4,0-0.6,0c-2.8,0-5,2.3-5,5
	C387.9,269.4,390.2,271.6,392.9,271.6 M392.9,260.3c0,0,0-0.1,0-0.1c0-5.7,4.6-10.3,10.3-10.3c4.9,0,9,3.4,10.1,8.1
	c0.4-0.1,0.8-0.1,1.2-0.1c4.1,0,7.5,3.4,7.5,7.5s-3.4,7.5-7.5,7.5h-5.6h-16c-3.4,0-6.2-2.8-6.2-6.2
	C386.7,263.2,389.5,260.4,392.9,260.3"/>
<path id="path246" inkscape:connector-curvature="0" class="st0" d="M385.4,253.7c0.4,0,0.8,0,1.2,0.1c1-4.7,5.2-8.1,10.1-8.1
	c2.1,0,4.2,0.6,5.9,1.9c0.3,0.2,0.3,0.6,0.1,0.9c-0.2,0.3-0.6,0.3-0.9,0.2c-1.5-1.1-3.3-1.6-5.2-1.6c-4.5,0-8.3,3.2-9,7.7
	c0,0.2-0.1,0.3-0.3,0.4c-0.1,0.1-0.3,0.1-0.5,0.1c-0.5-0.1-1-0.2-1.5-0.2c-3.4,0-6.3,2.8-6.3,6.3c0,3.2,2.4,5.9,5.6,6.2
	c0.3,0,0.6,0.3,0.5,0.7c0,0.3-0.3,0.5-0.6,0.5c0,0,0,0-0.1,0c-3.8-0.4-6.7-3.6-6.7-7.4C377.9,257.1,381.3,253.7,385.4,253.7"/>
<path id="path250" inkscape:connector-curvature="0" class="st0" d="M199.6,276.9c-0.3-0.2-0.7,0-0.8,0.3l-4.1,8.3
	c-0.2,0.3,0,0.7,0.3,0.8c0.1,0,0.2,0.1,0.3,0.1c0.2,0,0.4-0.1,0.5-0.3l4.1-8.3C200.1,277.4,199.9,277.1,199.6,276.9"/>
<path id="path258" inkscape:connector-curvature="0" class="st0" d="M213.4,276.9c-0.3-0.2-0.7,0-0.8,0.3l-4.1,8.3
	c-0.2,0.3,0,0.7,0.3,0.8c0.1,0,0.2,0.1,0.3,0.1c0.2,0,0.4-0.1,0.5-0.3l4.1-8.3C213.9,277.4,213.7,277.1,213.4,276.9"/>
<path id="path266" inkscape:connector-curvature="0" class="st0" d="M227.2,276.9c-0.3-0.2-0.7,0-0.8,0.3l-4.1,8.3
	c-0.2,0.3,0,0.7,0.3,0.8c0.1,0,0.2,0.1,0.3,0.1c0.2,0,0.4-0.1,0.6-0.3l4.1-8.3C227.7,277.4,227.5,277.1,227.2,276.9"/>
<path id="path270" inkscape:connector-curvature="0" class="st0" d="M311.1,278.5c-0.3-0.2-0.7,0-0.9,0.3l-4.4,8.9
	c-0.2,0.3,0,0.7,0.3,0.9c0.1,0,0.2,0.1,0.3,0.1c0.2,0,0.5-0.1,0.6-0.4l4.4-8.9C311.6,279,311.5,278.6,311.1,278.5"/>
<path id="path274" inkscape:connector-curvature="0" class="st0" d="M292.9,273.5h22.7c0.1,0,0.3,0,0.5,0v0c3.7,0,6.7-3,6.7-6.7
	s-3-6.7-6.7-6.7c-0.5,0-1.1,0.1-1.6,0.2c-0.2,0-0.4,0-0.5-0.1c-0.2-0.1-0.3-0.3-0.3-0.4c-0.8-4.8-4.8-8.2-9.6-8.2
	c-5.4,0-9.8,4.4-9.8,9.8c0,0.3,0,0.5,0,0.8c0,0.2-0.1,0.4-0.2,0.5c-0.1,0.1-0.3,0.2-0.5,0.2c-0.2,0-0.4,0-0.6,0
	c-3,0-5.4,2.4-5.4,5.4S289.9,273.5,292.9,273.5 M292.9,261.4c0,0,0-0.1,0-0.1c0-6.1,5-11.1,11.1-11.1c5.3,0,9.7,3.6,10.8,8.7
	c0.4-0.1,0.8-0.1,1.3-0.1c4.4,0,8,3.6,8,8c0,4.4-3.6,8-8,8h-6h-17.1c-3.7,0-6.7-3-6.7-6.7C286.2,264.4,289.2,261.4,292.9,261.4"/>
<path id="path278" inkscape:connector-curvature="0" class="st0" d="M284.8,254.3c0.4,0,0.8,0,1.3,0.1c1.1-5.1,5.6-8.7,10.8-8.7
	c2.3,0,4.5,0.7,6.4,2c0.3,0.2,0.4,0.6,0.2,0.9c-0.2,0.3-0.6,0.4-0.9,0.2c-1.6-1.2-3.6-1.8-5.6-1.8c-4.8,0-8.9,3.5-9.6,8.2
	c0,0.2-0.1,0.3-0.3,0.4c-0.2,0.1-0.3,0.1-0.5,0.1c-0.6-0.1-1.1-0.2-1.6-0.2c-3.7,0-6.7,3-6.7,6.7c0,3.5,2.6,6.3,6,6.7
	c0.4,0,0.6,0.4,0.6,0.7c0,0.3-0.3,0.6-0.7,0.6c0,0,0,0-0.1,0c-4.1-0.4-7.2-3.9-7.2-8C276.8,257.9,280.4,254.3,284.8,254.3"/>
<path id="path282" inkscape:connector-curvature="0" class="st0" d="M394,278.8c-0.3-0.2-0.7,0-0.9,0.3l-4.6,9.2
	c-0.2,0.3,0,0.7,0.3,0.9c0.1,0,0.2,0.1,0.3,0.1c0.2,0,0.5-0.1,0.6-0.4l4.6-9.2C394.5,279.4,394.3,279,394,278.8"/>
<path id="path286" inkscape:connector-curvature="0" class="st0" d="M409.3,278.8c-0.3-0.2-0.7,0-0.9,0.3l-4.6,9.2
	c-0.2,0.3,0,0.7,0.3,0.9c0.1,0,0.2,0.1,0.3,0.1c0.2,0,0.5-0.1,0.6-0.4l4.6-9.2C409.8,279.4,409.6,279,409.3,278.8"/>
<path id="path290" inkscape:connector-curvature="0" class="st0" d="M202.2,273.7h23.4c0.2,0,0.3,0,0.5,0v0c3.8,0,6.9-3.1,6.9-6.9
	s-3.1-6.9-6.9-6.9c-0.5,0-1.1,0.1-1.7,0.2c-0.2,0-0.4,0-0.5-0.1c-0.2-0.1-0.3-0.3-0.3-0.5c-0.8-4.9-5-8.5-9.9-8.5
	c-5.6,0-10.1,4.5-10.1,10.1c0,0.3,0,0.5,0,0.8c0,0.2-0.1,0.4-0.2,0.5c-0.1,0.1-0.3,0.2-0.5,0.2c-0.2,0-0.4,0-0.6,0
	c-3.1,0-5.6,2.5-5.6,5.6S199.1,273.7,202.2,273.7 M202.1,261.2c0,0,0-0.1,0-0.1c0-6.3,5.1-11.4,11.4-11.4c5.4,0,10,3.7,11.2,9
	c0.4-0.1,0.9-0.1,1.3-0.1c4.6,0,8.3,3.7,8.3,8.3s-3.7,8.3-8.3,8.3h-6.2h-17.7c-3.8,0-6.9-3.1-6.9-6.9
	C195.3,264.3,198.3,261.2,202.1,261.2"/>
<path id="path294" inkscape:connector-curvature="0" class="st0" d="M193.8,253.9c0.4,0,0.9,0,1.3,0.1c1.1-5.2,5.7-9,11.2-9
	c2.4,0,4.6,0.7,6.6,2.1c0.3,0.2,0.4,0.6,0.2,0.9c-0.2,0.3-0.6,0.4-0.9,0.2c-1.7-1.2-3.7-1.8-5.8-1.8c-5,0-9.2,3.6-9.9,8.5
	c0,0.2-0.1,0.4-0.3,0.5c-0.2,0.1-0.4,0.1-0.5,0.1c-0.6-0.1-1.1-0.2-1.7-0.2c-3.8,0-6.9,3.1-6.9,6.9c0,3.6,2.7,6.5,6.2,6.9
	c0.4,0,0.6,0.4,0.6,0.7c0,0.3-0.3,0.6-0.7,0.6c0,0,0,0-0.1,0c-4.2-0.4-7.4-4-7.4-8.2C185.6,257.6,189.3,253.9,193.8,253.9"/>
<path id="path298" inkscape:connector-curvature="0" class="st0" d="M492.5,278.2c-0.3-0.2-0.7,0-0.9,0.3l-4.3,8.6
	c-0.2,0.3,0,0.7,0.3,0.9c0.1,0,0.2,0.1,0.3,0.1c0.2,0,0.5-0.1,0.6-0.4l4.3-8.6C492.9,278.7,492.8,278.3,492.5,278.2"/>
<path id="path302" inkscape:connector-curvature="0" class="st0" d="M499.7,278.2c-0.3-0.2-0.7,0-0.9,0.3l-4.3,8.6
	c-0.2,0.3,0,0.7,0.3,0.9c0.1,0,0.2,0.1,0.3,0.1c0.2,0,0.5-0.1,0.6-0.4l4.3-8.6C500.1,278.7,500,278.3,499.7,278.2"/>
<path id="path306" inkscape:connector-curvature="0" class="st0" d="M506.9,278.2c-0.3-0.2-0.7,0-0.9,0.3l-4.3,8.6
	c-0.2,0.3,0,0.7,0.3,0.9c0.1,0,0.2,0.1,0.3,0.1c0.2,0,0.5-0.1,0.6-0.4l4.3-8.6C507.3,278.7,507.2,278.3,506.9,278.2"/>
<path id="path310" inkscape:connector-curvature="0" class="st0" d="M108.8,273.3h22c0.1,0,0.3,0,0.4,0v0c3.6,0,6.5-2.9,6.5-6.5
	c0-3.6-2.9-6.5-6.5-6.5c-0.5,0-1,0.1-1.6,0.2c-0.2,0-0.4,0-0.5-0.1c-0.1-0.1-0.3-0.3-0.3-0.4c-0.7-4.6-4.7-8-9.4-8
	c-5.2,0-9.5,4.3-9.5,9.5c0,0.3,0,0.5,0,0.8c0,0.2-0.1,0.4-0.2,0.5c-0.1,0.1-0.3,0.2-0.5,0.2c-0.2,0-0.4,0-0.6,0
	c-2.9,0-5.2,2.3-5.2,5.2C103.6,270.9,105.9,273.3,108.8,273.3 M108.8,261.5v-0.1c0-5.9,4.8-10.8,10.8-10.8c5.1,0,9.4,3.5,10.5,8.4
	c0.4-0.1,0.8-0.1,1.2-0.1c4.3,0,7.8,3.5,7.8,7.8s-3.5,7.8-7.8,7.8h-5.8h-16.7c-3.6,0-6.5-2.9-6.5-6.5
	C102.3,264.5,105.2,261.5,108.8,261.5"/>
<path id="path314" inkscape:connector-curvature="0" class="st0" d="M100.9,254.6c0.4,0,0.8,0,1.2,0.1c1.1-4.9,5.4-8.4,10.5-8.4
	c2.2,0,4.4,0.7,6.2,1.9c0.3,0.2,0.4,0.6,0.2,0.9c-0.2,0.3-0.6,0.4-0.9,0.2c-1.6-1.1-3.5-1.7-5.4-1.7c-4.7,0-8.6,3.4-9.4,8
	c0,0.2-0.1,0.3-0.3,0.4c-0.2,0.1-0.3,0.1-0.5,0.1c-0.5-0.1-1.1-0.2-1.6-0.2c-3.6,0-6.5,2.9-6.5,6.5c0,3.4,2.5,6.2,5.8,6.5
	c0.4,0,0.6,0.4,0.6,0.7c0,0.3-0.3,0.6-0.6,0.6c0,0,0,0-0.1,0c-4-0.4-7-3.8-7-7.8C93.1,258.1,96.6,254.6,100.9,254.6"/>
<path id="path318" inkscape:connector-curvature="0" class="st0" d="M489.1,369.1c-0.3-0.2-0.7,0-0.9,0.3l-4.3,8.7
	c-0.2,0.3,0,0.7,0.3,0.9c0.1,0,0.2,0.1,0.3,0.1c0.2,0,0.5-0.1,0.6-0.4l4.3-8.7C489.5,369.7,489.4,369.3,489.1,369.1"/>
<path id="path322" inkscape:connector-curvature="0" class="st0" d="M496.3,369.1c-0.3-0.2-0.7,0-0.9,0.3l-4.3,8.7
	c-0.2,0.3,0,0.7,0.3,0.9c0.1,0,0.2,0.1,0.3,0.1c0.2,0,0.5-0.1,0.6-0.4l4.3-8.7C496.8,369.7,496.6,369.3,496.3,369.1"/>
<path id="path326" inkscape:connector-curvature="0" class="st0" d="M503.6,369.1c-0.3-0.2-0.7,0-0.9,0.3l-4.3,8.7
	c-0.2,0.3,0,0.7,0.3,0.9c0.1,0,0.2,0.1,0.3,0.1c0.2,0,0.5-0.1,0.6-0.4l4.3-8.7C504,369.7,503.9,369.3,503.6,369.1"/>
<path id="path330" inkscape:connector-curvature="0" class="st0" d="M510.8,369.1c-0.3-0.2-0.7,0-0.9,0.3l-4.3,8.7
	c-0.2,0.3,0,0.7,0.3,0.9c0.1,0,0.2,0.1,0.3,0.1c0.2,0,0.5-0.1,0.6-0.4l4.3-8.7C511.3,369.7,511.1,369.3,510.8,369.1"/>
<path id="path334" inkscape:connector-curvature="0" class="st0" d="M518.1,369.1c-0.3-0.2-0.7,0-0.9,0.3l-4.3,8.7
	c-0.2,0.3,0,0.7,0.3,0.9c0.1,0,0.2,0.1,0.3,0.1c0.2,0,0.5-0.1,0.6-0.4l4.3-8.7C518.5,369.7,518.4,369.3,518.1,369.1"/>
<path id="path338" inkscape:connector-curvature="0" class="st0" d="M491.8,364.2H514c0.1,0,0.3,0,0.4,0v0c3.6,0,6.6-2.9,6.6-6.6
	c0-3.6-2.9-6.6-6.6-6.6c-0.5,0-1,0.1-1.6,0.2c-0.2,0-0.4,0-0.5-0.1c-0.2-0.1-0.3-0.3-0.3-0.4c-0.7-4.7-4.7-8.1-9.4-8.1
	c-5.3,0-9.6,4.3-9.6,9.6c0,0.3,0,0.5,0,0.8c0,0.2-0.1,0.4-0.2,0.5c-0.1,0.1-0.3,0.2-0.5,0.2c-0.2,0-0.4,0-0.6,0
	c-2.9,0-5.3,2.4-5.3,5.3S488.9,364.2,491.8,364.2 M491.8,352.4c0,0,0-0.1,0-0.1c0-6,4.9-10.8,10.8-10.8c5.1,0,9.5,3.5,10.6,8.5
	c0.4-0.1,0.8-0.1,1.2-0.1c4.3,0,7.9,3.5,7.9,7.9s-3.5,7.9-7.9,7.9h-5.9h-16.8c-3.6,0-6.6-2.9-6.6-6.6
	C485.2,355.4,488.2,352.4,491.8,352.4"/>
<path id="path342" inkscape:connector-curvature="0" class="st0" d="M483.9,345.5c0.4,0,0.8,0,1.2,0.1c1.1-5,5.4-8.5,10.6-8.5
	c2.2,0,4.4,0.7,6.2,2c0.3,0.2,0.4,0.6,0.2,0.9c-0.2,0.3-0.6,0.4-0.9,0.2c-1.6-1.1-3.5-1.7-5.5-1.7c-4.7,0-8.7,3.4-9.4,8.1
	c0,0.2-0.1,0.3-0.3,0.4c-0.1,0.1-0.3,0.1-0.5,0.1c-0.5-0.1-1.1-0.2-1.6-0.2c-3.6,0-6.6,2.9-6.6,6.6c0,3.4,2.5,6.2,5.9,6.5
	c0.4,0,0.6,0.4,0.6,0.7c0,0.3-0.3,0.6-0.6,0.6c0,0,0,0-0.1,0c-4-0.4-7-3.8-7-7.8C476,349,479.6,345.5,483.9,345.5"/>
<path id="path346" inkscape:connector-curvature="0" class="st0" d="M386.8,369.1c-0.3-0.2-0.7,0-0.9,0.3l-4.3,8.7
	c-0.2,0.3,0,0.7,0.3,0.9c0.1,0,0.2,0.1,0.3,0.1c0.2,0,0.5-0.1,0.6-0.4l4.3-8.7C387.3,369.7,387.1,369.3,386.8,369.1"/>
<path id="path350" inkscape:connector-curvature="0" class="st0" d="M394.1,369.1c-0.3-0.2-0.7,0-0.9,0.3l-4.3,8.7
	c-0.2,0.3,0,0.7,0.3,0.9c0.1,0,0.2,0.1,0.3,0.1c0.2,0,0.5-0.1,0.6-0.4l4.3-8.7C394.5,369.7,394.4,369.3,394.1,369.1"/>
<path id="path354" inkscape:connector-curvature="0" class="st0" d="M401.3,369.1c-0.3-0.2-0.7,0-0.9,0.3l-4.3,8.7
	c-0.2,0.3,0,0.7,0.3,0.9c0.1,0,0.2,0.1,0.3,0.1c0.2,0,0.5-0.1,0.6-0.4l4.3-8.7C401.8,369.7,401.6,369.3,401.3,369.1"/>
<path id="path358" inkscape:connector-curvature="0" class="st0" d="M408.6,369.1c-0.3-0.2-0.7,0-0.9,0.3l-4.3,8.7
	c-0.2,0.3,0,0.7,0.3,0.9c0.1,0,0.2,0.1,0.3,0.1c0.2,0,0.5-0.1,0.6-0.4l4.3-8.7C409,369.7,408.9,369.3,408.6,369.1"/>
<path id="path362" inkscape:connector-curvature="0" class="st0" d="M415.8,369.1c-0.3-0.2-0.7,0-0.9,0.3l-4.3,8.7
	c-0.2,0.3,0,0.7,0.3,0.9c0.1,0,0.2,0.1,0.3,0.1c0.2,0,0.5-0.1,0.6-0.4l4.3-8.7C416.3,369.7,416.1,369.3,415.8,369.1"/>
<path id="path366" inkscape:connector-curvature="0" class="st0" d="M422.8,369.1c-0.3-0.2-0.7,0-0.9,0.3l-4.3,8.7
	c-0.2,0.3,0,0.7,0.3,0.9c0.1,0,0.2,0.1,0.3,0.1c0.2,0,0.5-0.1,0.6-0.4l4.3-8.7C423.2,369.7,423.1,369.3,422.8,369.1"/>
<path id="path370" inkscape:connector-curvature="0" class="st0" d="M392.5,364.2h22.2c0.1,0,0.3,0,0.4,0v0c3.6,0,6.6-2.9,6.6-6.6
	c0-3.6-2.9-6.6-6.6-6.6c-0.5,0-1,0.1-1.6,0.2c-0.2,0-0.4,0-0.5-0.1c-0.1-0.1-0.3-0.3-0.3-0.4c-0.7-4.7-4.7-8.1-9.4-8.1
	c-5.3,0-9.6,4.3-9.6,9.6c0,0.3,0,0.5,0,0.8c0,0.2-0.1,0.4-0.2,0.5c-0.1,0.1-0.3,0.2-0.5,0.2c-0.2,0-0.4,0-0.6,0
	c-2.9,0-5.3,2.4-5.3,5.3S389.6,364.2,392.5,364.2 M392.4,352.4c0,0,0-0.1,0-0.1c0-6,4.9-10.8,10.8-10.8c5.1,0,9.5,3.5,10.6,8.5
	c0.4-0.1,0.8-0.1,1.2-0.1c4.3,0,7.9,3.5,7.9,7.9s-3.5,7.9-7.9,7.9h-5.9h-16.8c-3.6,0-6.6-2.9-6.6-6.6
	C385.9,355.4,388.8,352.4,392.4,352.4"/>
<path id="path374" inkscape:connector-curvature="0" class="st0" d="M384.6,345.5c0.4,0,0.8,0,1.2,0.1c1.1-5,5.4-8.5,10.6-8.5
	c2.2,0,4.4,0.7,6.2,2c0.3,0.2,0.4,0.6,0.2,0.9c-0.2,0.3-0.6,0.4-0.9,0.2c-1.6-1.1-3.5-1.7-5.5-1.7c-4.7,0-8.7,3.4-9.4,8.1
	c0,0.2-0.1,0.3-0.3,0.4c-0.1,0.1-0.3,0.1-0.5,0.1c-0.5-0.1-1.1-0.2-1.6-0.2c-3.6,0-6.6,2.9-6.6,6.6c0,3.4,2.5,6.2,5.9,6.5
	c0.4,0,0.6,0.4,0.6,0.7c0,0.3-0.3,0.6-0.6,0.6c0,0,0,0-0.1,0c-4-0.4-7-3.8-7-7.8C376.7,349,380.2,345.5,384.6,345.5"/>
<path id="path378" inkscape:connector-curvature="0" class="st0" d="M282.1,369.1c-0.3-0.2-0.7,0-0.9,0.3l-4.3,8.7
	c-0.2,0.3,0,0.7,0.3,0.9c0.1,0,0.2,0.1,0.3,0.1c0.2,0,0.5-0.1,0.6-0.4l4.3-8.7C282.5,369.7,282.4,369.3,282.1,369.1"/>
<path id="path382" inkscape:connector-curvature="0" class="st0" d="M289.3,369.1c-0.3-0.2-0.7,0-0.9,0.3l-4.3,8.7
	c-0.2,0.3,0,0.7,0.3,0.9c0.1,0,0.2,0.1,0.3,0.1c0.2,0,0.5-0.1,0.6-0.4l4.3-8.7C289.8,369.7,289.6,369.3,289.3,369.1"/>
<path id="path386" inkscape:connector-curvature="0" class="st0" d="M296.6,369.1c-0.3-0.2-0.7,0-0.9,0.3l-4.3,8.7
	c-0.2,0.3,0,0.7,0.3,0.9c0.1,0,0.2,0.1,0.3,0.1c0.2,0,0.5-0.1,0.6-0.4l4.3-8.7C297,369.7,296.9,369.3,296.6,369.1"/>
<path id="path390" inkscape:connector-curvature="0" class="st0" d="M303.8,369.1c-0.3-0.2-0.7,0-0.9,0.3l-4.3,8.7
	c-0.2,0.3,0,0.7,0.3,0.9c0.1,0,0.2,0.1,0.3,0.1c0.2,0,0.5-0.1,0.6-0.4l4.3-8.7C304.3,369.7,304.1,369.3,303.8,369.1"/>
<path id="path394" inkscape:connector-curvature="0" class="st0" d="M311.1,369.1c-0.3-0.2-0.7,0-0.9,0.3l-4.3,8.7
	c-0.2,0.3,0,0.7,0.3,0.9c0.1,0,0.2,0.1,0.3,0.1c0.2,0,0.5-0.1,0.6-0.4l4.3-8.7C311.5,369.7,311.4,369.3,311.1,369.1"/>
<path id="path398" inkscape:connector-curvature="0" class="st0" d="M318,369.1c-0.3-0.2-0.7,0-0.9,0.3l-4.3,8.7
	c-0.2,0.3,0,0.7,0.3,0.9c0.1,0,0.2,0.1,0.3,0.1c0.2,0,0.5-0.1,0.6-0.4l4.3-8.7C318.5,369.7,318.4,369.3,318,369.1"/>
<path id="path402" inkscape:connector-curvature="0" class="st0" d="M323.7,369.1c-0.3-0.2-0.7,0-0.9,0.3l-4.3,8.7
	c-0.2,0.3,0,0.7,0.3,0.9c0.1,0,0.2,0.1,0.3,0.1c0.2,0,0.5-0.1,0.6-0.4l4.3-8.7C324.1,369.7,324,369.3,323.7,369.1"/>
<path id="path406" inkscape:connector-curvature="0" class="st0" d="M293.1,364.2h22.2c0.1,0,0.3,0,0.4,0v0c3.6,0,6.6-2.9,6.6-6.6
	c0-3.6-2.9-6.6-6.6-6.6c-0.5,0-1,0.1-1.6,0.2c-0.2,0-0.4,0-0.5-0.1c-0.1-0.1-0.3-0.3-0.3-0.4c-0.7-4.7-4.7-8.1-9.4-8.1
	c-5.3,0-9.6,4.3-9.6,9.6c0,0.3,0,0.5,0,0.8c0,0.2-0.1,0.4-0.2,0.5c-0.1,0.1-0.3,0.2-0.5,0.2c-0.2,0-0.4,0-0.6,0
	c-2.9,0-5.3,2.4-5.3,5.3S290.1,364.2,293.1,364.2 M293,352.4c0,0,0-0.1,0-0.1c0-6,4.9-10.8,10.8-10.8c5.1,0,9.5,3.5,10.6,8.5
	c0.4-0.1,0.8-0.1,1.2-0.1c4.3,0,7.9,3.5,7.9,7.9s-3.5,7.9-7.9,7.9h-5.9h-16.8c-3.6,0-6.6-2.9-6.6-6.6
	C286.5,355.4,289.4,352.4,293,352.4"/>
<path id="path410" inkscape:connector-curvature="0" class="st0" d="M285.2,345.5c0.4,0,0.8,0,1.2,0.1c1.1-5,5.4-8.5,10.6-8.5
	c2.2,0,4.4,0.7,6.2,2c0.3,0.2,0.4,0.6,0.2,0.9c-0.2,0.3-0.6,0.4-0.9,0.2c-1.6-1.1-3.5-1.7-5.5-1.7c-4.7,0-8.7,3.4-9.4,8.1
	c0,0.2-0.1,0.3-0.3,0.4c-0.1,0.1-0.3,0.1-0.5,0.1c-0.5-0.1-1.1-0.2-1.6-0.2c-3.6,0-6.6,2.9-6.6,6.6c0,3.4,2.5,6.2,5.9,6.5
	c0.4,0,0.6,0.4,0.6,0.7c0,0.3-0.3,0.6-0.6,0.6c0,0,0,0-0.1,0c-4-0.4-7-3.8-7-7.8C277.3,349,280.8,345.5,285.2,345.5"/>
<path id="path438" inkscape:connector-curvature="0" class="st0" d="M206.2,368.8l19.9,0c0.1,0,0.3,0,0.4,0v0c3.3,0,5.9-2.6,5.9-5.9
	s-2.6-5.9-5.9-5.9c-0.5,0-0.9,0.1-1.4,0.2c-0.2,0-0.3,0-0.5-0.1c-0.1-0.1-0.2-0.2-0.3-0.4c-0.7-4.2-4.2-7.2-8.5-7.2
	c-4.7,0-8.6,3.9-8.6,8.6c0,0.2,0,0.5,0,0.7c0,0.2-0.1,0.3-0.2,0.5c-0.1,0.1-0.3,0.2-0.5,0.2c-0.2,0-0.3,0-0.5,0
	c-2.6,0-4.7,2.1-4.7,4.7C201.5,366.7,203.6,368.8,206.2,368.8 M206.2,358.2c0,0,0-0.1,0-0.1c0-5.4,4.4-9.7,9.7-9.7
	c4.6,0,8.5,3.2,9.5,7.6c0.4-0.1,0.7-0.1,1.1-0.1c3.9,0,7.1,3.2,7.1,7.1s-3.2,7.1-7.1,7.1h0h-5.3h-15.1c-3.2,0-5.9-2.6-5.9-5.9
	C200.4,360.9,203,358.2,206.2,358.2"/>
<path id="path442" inkscape:connector-curvature="0" class="st0" d="M194.7,352.4c0-5.2,4.2-9.4,9.4-9.4c3.2,0,5.9,1.4,7.6,4
	c0.2,0.3,0.1,0.6-0.2,0.8s-0.6,0.1-0.8-0.2c-1.5-2.3-3.9-3.5-6.7-3.5c-4.5,0-8.2,3.7-8.2,8.2c0,2.8,1.4,5.4,3.8,6.9
	c0.3,0.2,0.3,0.5,0.2,0.8c-0.1,0.2-0.3,0.3-0.5,0.3c-0.1,0-0.2,0-0.3-0.1C196.3,358.5,194.7,355.6,194.7,352.4"/>
<path id="path446" inkscape:connector-curvature="0" class="st0" d="M203.9,340.1c-0.3,0-0.6-0.3-0.6-0.6v-4.6
	c0-0.3,0.3-0.6,0.6-0.6c0.3,0,0.6,0.3,0.6,0.6v4.6C204.5,339.9,204.3,340.1,203.9,340.1"/>
<path id="path450" inkscape:connector-curvature="0" class="st0" d="M197.6,341.9c-0.1,0.1-0.2,0.1-0.3,0.1c-0.2,0-0.4-0.1-0.5-0.3
	l-2.4-3.9c-0.2-0.3-0.1-0.6,0.2-0.8c0.3-0.2,0.6-0.1,0.8,0.2l2.4,3.9C198,341.4,197.9,341.8,197.6,341.9"/>
<path id="path454" inkscape:connector-curvature="0" class="st0" d="M192.8,346.8c-0.1,0-0.2,0-0.3-0.1l-4.1-2.2
	c-0.3-0.2-0.4-0.5-0.2-0.8c0.2-0.3,0.5-0.4,0.8-0.2l4.1,2.2c0.3,0.2,0.4,0.5,0.2,0.8C193.2,346.7,193,346.8,192.8,346.8"/>
<path id="path458" inkscape:connector-curvature="0" class="st0" d="M186.7,351.6l4.6,0c0.3,0,0.6,0.3,0.6,0.6
	c0,0.3-0.3,0.6-0.6,0.6l-4.6,0c-0.3,0-0.6-0.3-0.6-0.6C186.1,351.8,186.4,351.6,186.7,351.6"/>
<path id="path462" inkscape:connector-curvature="0" class="st0" d="M188.5,359.9l4.1-2.2c0.3-0.2,0.6,0,0.8,0.2
	c0.2,0.3,0,0.6-0.2,0.8l-4.1,2.2c-0.1,0-0.2,0.1-0.3,0.1c-0.2,0-0.4-0.1-0.5-0.3C188.1,360.4,188.2,360.1,188.5,359.9"/>
<path id="path466" inkscape:connector-curvature="0" class="st0" d="M219.4,344.4l-4.1,2.2c-0.1,0-0.2,0.1-0.3,0.1
	c-0.2,0-0.4-0.1-0.5-0.3c-0.2-0.3-0.1-0.6,0.2-0.8l4.1-2.2c0.3-0.2,0.6-0.1,0.8,0.2C219.8,343.9,219.7,344.2,219.4,344.4"/>
<path id="path470" inkscape:connector-curvature="0" class="st0" d="M196.8,362.6c0.2-0.3,0.5-0.4,0.8-0.2c0.3,0.2,0.4,0.5,0.2,0.8
	l-2.5,3.9c-0.1,0.2-0.3,0.3-0.5,0.3c-0.1,0-0.2,0-0.3-0.1c-0.3-0.2-0.4-0.5-0.2-0.8L196.8,362.6L196.8,362.6z"/>
<path id="path474" inkscape:connector-curvature="0" class="st0" d="M211.1,341.8c-0.1,0.2-0.3,0.3-0.5,0.3c-0.1,0-0.2,0-0.3-0.1
	c-0.3-0.2-0.4-0.5-0.2-0.8l2.5-3.9c0.2-0.3,0.5-0.4,0.8-0.2c0.3,0.2,0.4,0.5,0.2,0.8L211.1,341.8L211.1,341.8z"/>
<path id="path506" inkscape:connector-curvature="0" class="st0" d="M491.9,447.1H514c0.1,0,0.3,0,0.4,0v0c3.6,0,6.6-2.9,6.6-6.6
	c0-3.6-2.9-6.6-6.6-6.6c-0.5,0-1,0.1-1.6,0.2c-0.2,0-0.4,0-0.5-0.1c-0.2-0.1-0.3-0.3-0.3-0.4c-0.7-4.7-4.7-8.1-9.4-8.1
	c-5.3,0-9.6,4.3-9.6,9.6c0,0.3,0,0.5,0,0.8c0,0.2-0.1,0.4-0.2,0.5c-0.1,0.1-0.3,0.2-0.5,0.2c-0.2,0-0.4,0-0.6,0
	c-2.9,0-5.3,2.4-5.3,5.3C486.6,444.8,489,447.1,491.9,447.1 M491.8,435.3c0,0,0-0.1,0-0.1c0-6,4.9-10.8,10.8-10.8
	c5.1,0,9.5,3.5,10.6,8.5c0.4-0.1,0.8-0.1,1.2-0.1c4.3,0,7.9,3.5,7.9,7.9s-3.5,7.9-7.9,7.9h-5.9h-16.7c-3.6,0-6.6-2.9-6.6-6.6
	C485.3,438.3,488.2,435.3,491.8,435.3"/>
<path id="path510" inkscape:connector-curvature="0" class="st0" d="M484,428.4c0.4,0,0.8,0,1.2,0.1c1.1-5,5.4-8.5,10.6-8.5
	c2.2,0,4.4,0.7,6.2,2c0.3,0.2,0.4,0.6,0.2,0.9c-0.2,0.3-0.6,0.4-0.9,0.2c-1.6-1.1-3.5-1.7-5.5-1.7c-4.7,0-8.7,3.4-9.4,8.1
	c0,0.2-0.1,0.3-0.3,0.4c-0.1,0.1-0.3,0.1-0.5,0.1c-0.5-0.1-1.1-0.2-1.6-0.2c-3.6,0-6.6,2.9-6.6,6.6c0,3.4,2.5,6.2,5.9,6.5
	c0.4,0,0.6,0.4,0.6,0.7c0,0.3-0.3,0.6-0.6,0.6c0,0,0,0-0.1,0c-4-0.4-7-3.8-7-7.8C476.1,431.9,479.6,428.4,484,428.4"/>
<path id="path530" inkscape:connector-curvature="0" class="st0" d="M392.1,448.4h23.6c0.2,0,0.3,0,0.5,0v0c3.9,0,7-3.1,7-7
	s-3.1-7-7-7c-0.5,0-1.1,0.1-1.7,0.2c-0.2,0-0.4,0-0.5-0.1c-0.2-0.1-0.3-0.3-0.3-0.5c-0.8-5-5-8.6-10-8.6c-5.6,0-10.2,4.6-10.2,10.2
	c0,0.3,0,0.5,0,0.8c0,0.2-0.1,0.4-0.2,0.5c-0.1,0.1-0.4,0.2-0.6,0.2c-0.2,0-0.4,0-0.6,0c-3.1,0-5.6,2.5-5.6,5.6
	C386.5,445.9,389,448.4,392.1,448.4 M392,435.8c0,0,0-0.1,0-0.1c0-6.4,5.2-11.6,11.6-11.6c5.5,0,10.1,3.8,11.3,9
	c0.4-0.1,0.9-0.1,1.3-0.1c4.6,0,8.4,3.8,8.4,8.4c0,4.6-3.8,8.4-8.4,8.4h-6.2h-17.8c-3.9,0-7-3.1-7-7
	C385.1,438.9,388.2,435.8,392,435.8"/>
<path id="path534" inkscape:connector-curvature="0" class="st0" d="M383.7,428.4c0.4,0,0.9,0,1.3,0.1c1.2-5.3,5.8-9,11.3-9
	c2.4,0,4.7,0.7,6.6,2.1c0.3,0.2,0.4,0.6,0.2,1c-0.2,0.3-0.6,0.4-1,0.2c-1.7-1.2-3.7-1.8-5.8-1.8c-5,0-9.3,3.6-10,8.6
	c0,0.2-0.1,0.4-0.3,0.5c-0.2,0.1-0.4,0.1-0.5,0.1c-0.6-0.1-1.1-0.2-1.7-0.2c-3.9,0-7,3.1-7,7c0,3.6,2.7,6.6,6.3,7
	c0.4,0,0.7,0.4,0.6,0.8c0,0.4-0.3,0.6-0.7,0.6c0,0,0,0-0.1,0c-4.3-0.4-7.5-4-7.5-8.3C375.3,432.1,379.1,428.4,383.7,428.4"/>
<path id="path542" inkscape:connector-curvature="0" class="st0" d="M295.4,453.6c-0.4,0-0.7,0.3-0.7,0.7v1h-1
	c-0.4,0-0.7,0.3-0.7,0.7c0,0.4,0.3,0.7,0.7,0.7h1l0,1c0,0.4,0.3,0.7,0.7,0.7c0.2,0,0.4-0.1,0.5-0.2c0.1-0.1,0.2-0.3,0.2-0.5l0-1l1,0
	c0.2,0,0.3-0.1,0.5-0.2c0.1-0.1,0.2-0.3,0.2-0.5c0-0.4-0.3-0.7-0.7-0.7l-1,0v-1C296.1,453.9,295.8,453.6,295.4,453.6"/>
<path id="path562" inkscape:connector-curvature="0" class="st0" d="M292.8,448.1h22.8c0.2,0,0.3,0,0.5,0v0c3.7,0,6.8-3,6.8-6.8
	s-3-6.8-6.8-6.8c-0.5,0-1.1,0.1-1.6,0.2c-0.2,0-0.4,0-0.5-0.1c-0.2-0.1-0.3-0.3-0.3-0.4c-0.8-4.8-4.8-8.3-9.7-8.3
	c-5.4,0-9.8,4.4-9.8,9.8c0,0.3,0,0.5,0,0.8c0,0.2-0.1,0.4-0.2,0.5c-0.1,0.1-0.3,0.2-0.5,0.2c-0.2,0-0.4,0-0.6,0
	c-3,0-5.4,2.4-5.4,5.4C287.4,445.7,289.8,448.1,292.8,448.1 M292.8,436c0,0,0-0.1,0-0.1c0-6.2,5-11.2,11.2-11.2
	c5.3,0,9.8,3.6,10.9,8.7c0.4-0.1,0.8-0.1,1.3-0.1c4.5,0,8.1,3.6,8.1,8.1s-3.6,8.1-8.1,8.1h-6h-17.2c-3.7,0-6.8-3-6.8-6.8
	C286.1,439,289.1,436,292.8,436"/>
<path id="path566" inkscape:connector-curvature="0" class="st0" d="M284.7,428.8c0.4,0,0.8,0,1.3,0.1c1.1-5.1,5.6-8.7,10.9-8.7
	c2.3,0,4.5,0.7,6.4,2c0.3,0.2,0.4,0.6,0.2,0.9c-0.2,0.3-0.6,0.4-0.9,0.2c-1.7-1.2-3.6-1.8-5.6-1.8c-4.9,0-9,3.5-9.7,8.3
	c0,0.2-0.1,0.3-0.3,0.5c-0.2,0.1-0.3,0.1-0.5,0.1c-0.6-0.1-1.1-0.2-1.6-0.2c-3.7,0-6.8,3-6.8,6.8c0,3.5,2.6,6.4,6.1,6.7
	c0.4,0,0.6,0.4,0.6,0.7c0,0.3-0.3,0.6-0.7,0.6c0,0,0,0-0.1,0c-4.1-0.4-7.3-3.9-7.3-8C276.6,432.4,280.2,428.8,284.7,428.8"/>
<path id="path790" inkscape:connector-curvature="0" class="st0" d="M106.9,280.7c0,1.2-1,2.1-2.1,2.1c-1.2,0-2.1-1-2.1-2.1
	c0-1.2,1-2.1,2.1-2.1C105.9,278.6,106.9,279.5,106.9,280.7"/>
<path id="path794" inkscape:connector-curvature="0" class="st0" d="M102.3,288.5c0,1.2-1,2.1-2.1,2.1c-1.2,0-2.1-1-2.1-2.1
	c0-1.2,1-2.1,2.1-2.1C101.4,286.4,102.3,287.4,102.3,288.5"/>
<path id="path798" inkscape:connector-curvature="0" class="st0" d="M118.8,280.7c0,1.2-1,2.1-2.1,2.1c-1.2,0-2.1-1-2.1-2.1
	c0-1.2,1-2.1,2.1-2.1C117.8,278.6,118.8,279.5,118.8,280.7"/>
<path id="path802" inkscape:connector-curvature="0" class="st0" d="M114.2,288.5c0,1.2-1,2.1-2.1,2.1c-1.2,0-2.1-1-2.1-2.1
	c0-1.2,1-2.1,2.1-2.1C113.3,286.4,114.2,287.4,114.2,288.5"/>
<path id="path806" inkscape:connector-curvature="0" class="st0" d="M130.6,280.7c0,1.2-1,2.1-2.1,2.1c-1.2,0-2.1-1-2.1-2.1
	c0-1.2,1-2.1,2.1-2.1C129.6,278.6,130.6,279.5,130.6,280.7"/>
<path id="path810" inkscape:connector-curvature="0" class="st0" d="M126,288.5c0,1.2-1,2.1-2.1,2.1c-1.2,0-2.1-1-2.1-2.1
	c0-1.2,1-2.1,2.1-2.1C125.1,286.4,126,287.4,126,288.5"/>
<path id="path6203" inkscape:connector-curvature="0" class="st0" d="M409.5,193.5c-0.3-0.1-0.6,0-0.7,0.2l-2,3.9
	c-0.1,0.3,0,0.6,0.2,0.7c0.1,0,0.2,0.1,0.3,0.1c0.2,0,0.4-0.1,0.5-0.3l2-3.9C409.9,193.9,409.7,193.6,409.5,193.5"/>
<path id="path3150" inkscape:connector-curvature="0" class="st0" d="M311.4,453.6c-0.4,0-0.7,0.3-0.7,0.7v1h-1
	c-0.4,0-0.7,0.3-0.7,0.7c0,0.4,0.3,0.7,0.7,0.7h1l0,1c0,0.4,0.3,0.7,0.7,0.7c0.2,0,0.4-0.1,0.5-0.2c0.1-0.1,0.2-0.3,0.2-0.5l0-1l1,0
	c0.2,0,0.3-0.1,0.5-0.2c0.1-0.1,0.2-0.3,0.2-0.5c0-0.4-0.3-0.7-0.7-0.7l-1,0v-1C312.1,453.9,311.8,453.6,311.4,453.6"/>
<path id="path3152" inkscape:connector-curvature="0" class="st0" d="M391.4,453.6c-0.4,0-0.7,0.3-0.7,0.7v1h-1
	c-0.4,0-0.7,0.3-0.7,0.7c0,0.4,0.3,0.7,0.7,0.7h1l0,1c0,0.4,0.3,0.7,0.7,0.7c0.2,0,0.4-0.1,0.5-0.2c0.1-0.1,0.2-0.3,0.2-0.5l0-1l1,0
	c0.2,0,0.3-0.1,0.5-0.2c0.1-0.1,0.2-0.3,0.2-0.5c0-0.4-0.3-0.7-0.7-0.7l-1,0v-1C392.1,453.9,391.8,453.6,391.4,453.6"/>
<path id="path3158" inkscape:connector-curvature="0" class="st0" d="M403.4,453.6c-0.4,0-0.7,0.3-0.7,0.7v1h-1
	c-0.4,0-0.7,0.3-0.7,0.7c0,0.4,0.3,0.7,0.7,0.7h1l0,1c0,0.4,0.3,0.7,0.7,0.7c0.2,0,0.4-0.1,0.5-0.2c0.1-0.1,0.2-0.3,0.2-0.5l0-1l1,0
	c0.2,0,0.3-0.1,0.5-0.2c0.1-0.1,0.2-0.3,0.2-0.5c0-0.4-0.3-0.7-0.7-0.7l-1,0v-1C404.1,453.9,403.8,453.6,403.4,453.6"/>
<path id="path3160" inkscape:connector-curvature="0" class="st0" d="M415.4,453.6c-0.4,0-0.7,0.3-0.7,0.7v1h-1
	c-0.4,0-0.7,0.3-0.7,0.7c0,0.4,0.3,0.7,0.7,0.7h1l0,1c0,0.4,0.3,0.7,0.7,0.7c0.2,0,0.4-0.1,0.5-0.2c0.1-0.1,0.2-0.3,0.2-0.5l0-1l1,0
	c0.2,0,0.3-0.1,0.5-0.2c0.1-0.1,0.2-0.3,0.2-0.5c0-0.4-0.3-0.7-0.7-0.7l-1,0v-1C416.1,453.9,415.8,453.6,415.4,453.6"/>
<path id="path3162" inkscape:connector-curvature="0" class="st0" d="M491.4,453.6c-0.4,0-0.7,0.3-0.7,0.7v1h-1
	c-0.4,0-0.7,0.3-0.7,0.7c0,0.4,0.3,0.7,0.7,0.7h1l0,1c0,0.4,0.3,0.7,0.7,0.7c0.2,0,0.4-0.1,0.5-0.2c0.1-0.1,0.2-0.3,0.2-0.5l0-1l1,0
	c0.2,0,0.3-0.1,0.5-0.2c0.1-0.1,0.2-0.3,0.2-0.5c0-0.4-0.3-0.7-0.7-0.7l-1,0v-1C492.1,453.9,491.8,453.6,491.4,453.6"/>
<path id="path3164" inkscape:connector-curvature="0" class="st0" d="M503.4,453.6c-0.4,0-0.7,0.3-0.7,0.7v1h-1
	c-0.4,0-0.7,0.3-0.7,0.7c0,0.4,0.3,0.7,0.7,0.7h1l0,1c0,0.4,0.3,0.7,0.7,0.7c0.2,0,0.4-0.1,0.5-0.2c0.1-0.1,0.2-0.3,0.2-0.5l0-1l1,0
	c0.2,0,0.3-0.1,0.5-0.2c0.1-0.1,0.2-0.3,0.2-0.5c0-0.4-0.3-0.7-0.7-0.7l-1,0v-1C504.1,453.9,503.8,453.6,503.4,453.6"/>
<path id="path3166" inkscape:connector-curvature="0" class="st0" d="M515.4,453.6c-0.4,0-0.7,0.3-0.7,0.7v1h-1
	c-0.4,0-0.7,0.3-0.7,0.7c0,0.4,0.3,0.7,0.7,0.7h1l0,1c0,0.4,0.3,0.7,0.7,0.7c0.2,0,0.4-0.1,0.5-0.2c0.1-0.1,0.2-0.3,0.2-0.5l0-1l1,0
	c0.2,0,0.3-0.1,0.5-0.2c0.1-0.1,0.2-0.3,0.2-0.5c0-0.4-0.3-0.7-0.7-0.7l-1,0v-1C516.1,453.9,515.8,453.6,515.4,453.6"/>
<path id="path3168" inkscape:connector-curvature="0" class="st0" d="M485.4,461.6c-0.4,0-0.7,0.3-0.7,0.7v1h-1
	c-0.4,0-0.7,0.3-0.7,0.7c0,0.4,0.3,0.7,0.7,0.7h1l0,1c0,0.4,0.3,0.7,0.7,0.7c0.2,0,0.4-0.1,0.5-0.2c0.1-0.1,0.2-0.3,0.2-0.5l0-1l1,0
	c0.2,0,0.3-0.1,0.5-0.2c0.1-0.1,0.2-0.3,0.2-0.5c0-0.4-0.3-0.7-0.7-0.7l-1,0v-1C486.1,461.9,485.8,461.6,485.4,461.6"/>
<path id="path3170" inkscape:connector-curvature="0" class="st0" d="M497.4,461.6c-0.4,0-0.7,0.3-0.7,0.7v1h-1
	c-0.4,0-0.7,0.3-0.7,0.7c0,0.4,0.3,0.7,0.7,0.7h1l0,1c0,0.4,0.3,0.7,0.7,0.7c0.2,0,0.4-0.1,0.5-0.2c0.1-0.1,0.2-0.3,0.2-0.5l0-1l1,0
	c0.2,0,0.3-0.1,0.5-0.2c0.1-0.1,0.2-0.3,0.2-0.5c0-0.4-0.3-0.7-0.7-0.7l-1,0v-1C498.1,461.9,497.8,461.6,497.4,461.6"/>
<path id="path3172" inkscape:connector-curvature="0" class="st0" d="M509.4,461.6c-0.4,0-0.7,0.3-0.7,0.7v1h-1
	c-0.4,0-0.7,0.3-0.7,0.7c0,0.4,0.3,0.7,0.7,0.7h1l0,1c0,0.4,0.3,0.7,0.7,0.7c0.2,0,0.4-0.1,0.5-0.2c0.1-0.1,0.2-0.3,0.2-0.5l0-1l1,0
	c0.2,0,0.3-0.1,0.5-0.2c0.1-0.1,0.2-0.3,0.2-0.5c0-0.4-0.3-0.7-0.7-0.7l-1,0v-1C510.1,461.9,509.8,461.6,509.4,461.6"/>
<path id="path3184" inkscape:connector-curvature="0" class="st0" d="M399.5,193.5c-0.3-0.1-0.6,0-0.7,0.2l-2,3.9
	c-0.1,0.3,0,0.6,0.2,0.7c0.1,0,0.2,0.1,0.3,0.1c0.2,0,0.4-0.1,0.5-0.3l2-3.9C399.9,193.9,399.7,193.6,399.5,193.5"/>
<path id="path3186" inkscape:connector-curvature="0" class="st0" d="M201.4,373.6c-0.4,0-0.7,0.3-0.7,0.7v1h-1
	c-0.4,0-0.7,0.3-0.7,0.7c0,0.4,0.3,0.7,0.7,0.7h1l0,1c0,0.4,0.3,0.7,0.7,0.7c0.2,0,0.4-0.1,0.5-0.2c0.1-0.1,0.2-0.3,0.2-0.5l0-1l1,0
	c0.2,0,0.3-0.1,0.5-0.2c0.1-0.1,0.2-0.3,0.2-0.5c0-0.4-0.3-0.7-0.7-0.7l-1,0v-1C202.1,373.9,201.8,373.6,201.4,373.6"/>
<path id="path3188" inkscape:connector-curvature="0" class="st0" d="M213.4,373.6c-0.4,0-0.7,0.3-0.7,0.7v1h-1
	c-0.4,0-0.7,0.3-0.7,0.7c0,0.4,0.3,0.7,0.7,0.7h1l0,1c0,0.4,0.3,0.7,0.7,0.7c0.2,0,0.4-0.1,0.5-0.2c0.1-0.1,0.2-0.3,0.2-0.5l0-1l1,0
	c0.2,0,0.3-0.1,0.5-0.2c0.1-0.1,0.2-0.3,0.2-0.5c0-0.4-0.3-0.7-0.7-0.7l-1,0v-1C214.1,373.9,213.8,373.6,213.4,373.6"/>
<path id="path3190" inkscape:connector-curvature="0" class="st0" d="M225.4,373.6c-0.4,0-0.7,0.3-0.7,0.7v1h-1
	c-0.4,0-0.7,0.3-0.7,0.7c0,0.4,0.3,0.7,0.7,0.7h1l0,1c0,0.4,0.3,0.7,0.7,0.7c0.2,0,0.4-0.1,0.5-0.2c0.1-0.1,0.2-0.3,0.2-0.5l0-1l1,0
	c0.2,0,0.3-0.1,0.5-0.2c0.1-0.1,0.2-0.3,0.2-0.5c0-0.4-0.3-0.7-0.7-0.7l-1,0v-1C226.1,373.9,225.8,373.6,225.4,373.6"/>
<path id="path3198" inkscape:connector-curvature="0" class="st0" d="M108.8,369.6h22.2c0.1,0,0.3,0,0.4,0v0c3.6,0,6.6-2.9,6.6-6.6
	c0-3.6-2.9-6.6-6.6-6.6c-0.5,0-1,0.1-1.6,0.2c-0.2,0-0.4,0-0.5-0.1c-0.1-0.1-0.3-0.3-0.3-0.4c-0.7-4.7-4.7-8.1-9.4-8.1
	c-5.3,0-9.6,4.3-9.6,9.6c0,0.3,0,0.5,0,0.8c0,0.2-0.1,0.4-0.2,0.5c-0.1,0.1-0.3,0.2-0.5,0.2c-0.2,0-0.4,0-0.6,0
	c-2.9,0-5.3,2.4-5.3,5.3S105.8,369.6,108.8,369.6 M108.7,357.8v-0.1c0-6,4.9-10.8,10.8-10.8c5.1,0,9.5,3.5,10.6,8.5
	c0.4-0.1,0.8-0.1,1.2-0.1c4.3,0,7.9,3.5,7.9,7.9s-3.5,7.9-7.9,7.9h-5.9h-16.8c-3.6,0-6.6-2.9-6.6-6.6
	C102.2,360.7,105.1,357.8,108.7,357.8"/>
<path id="path3200" inkscape:connector-curvature="0" class="st0" d="M100.9,350.8c0.4,0,0.8,0,1.2,0.1c1.1-5,5.4-8.5,10.6-8.5
	c2.2,0,4.4,0.7,6.2,2c0.3,0.2,0.4,0.6,0.2,0.9c-0.2,0.3-0.6,0.4-0.9,0.2c-1.6-1.1-3.5-1.7-5.5-1.7c-4.7,0-8.7,3.4-9.4,8.1
	c0,0.2-0.1,0.3-0.3,0.4c-0.2,0.1-0.3,0.1-0.5,0.1c-0.5-0.1-1.1-0.2-1.6-0.2c-3.6,0-6.6,2.9-6.6,6.6c0,3.4,2.5,6.2,5.9,6.5
	c0.4,0,0.6,0.4,0.6,0.7c0,0.3-0.3,0.6-0.6,0.6c0,0,0,0-0.1,0c-4-0.4-7-3.8-7-7.8C93,354.3,96.5,350.8,100.9,350.8"/>
<path id="path3202" inkscape:connector-curvature="0" class="st0" d="M111,381.4c0,0.5,0.3,1,0.7,1h0.7c0.4,0,0.7-0.4,0.7-1v-5.1
	c0-0.5-0.3-1-0.7-1h-0.7c-0.4,0-0.7,0.4-0.7,1V381.4z"/>
<path id="path3204" inkscape:connector-curvature="0" class="st0" d="M120,381.4c0,0.5,0.3,1,0.7,1h0.7c0.4,0,0.7-0.4,0.7-1v-5.1
	c0-0.5-0.3-1-0.7-1h-0.7c-0.4,0-0.7,0.4-0.7,1V381.4z"/>
<path id="path3206" inkscape:connector-curvature="0" class="st0" d="M129,381.4c0,0.5,0.3,1,0.7,1h0.7c0.4,0,0.7-0.4,0.7-1v-5.1
	c0-0.5-0.3-1-0.7-1h-0.7c-0.4,0-0.7,0.4-0.7,1V381.4z"/>
<path id="path4010" inkscape:connector-curvature="0" class="st0" d="M302.2,165.8c-8.8,0-16,7.2-16,16s7.2,16,16,16
	c8.8,0,16-7.2,16-16S311.1,165.8,302.2,165.8z M302.2,167.2c8,0,14.5,6.5,14.5,14.5s-6.5,14.5-14.5,14.5c-8,0-14.5-6.5-14.5-14.5
	S294.2,167.2,302.2,167.2z"/>
<path id="path4017" inkscape:connector-curvature="0" class="st0" d="M210.9,421.7c-8.8,0-16,7.2-16,16s7.2,16,16,16s16-7.2,16-16
	S219.7,421.7,210.9,421.7z M210.9,423.2c8,0,14.5,6.5,14.5,14.5s-6.5,14.5-14.5,14.5c-8,0-14.5-6.5-14.5-14.5
	S202.9,423.2,210.9,423.2z"/>
<path id="path4019" inkscape:connector-curvature="0" class="st0" d="M105,508.2v1.5h35v-1.5H105z"/>
<path id="path4021" inkscape:connector-curvature="0" class="st0" d="M105,518.3v1.5h35v-1.5H105z"/>
<path id="path4023" inkscape:connector-curvature="0" class="st0" d="M105,528.3v1.5h35v-1.5H105z"/>
<path id="path4037" inkscape:connector-curvature="0" class="st0" d="M105,538.3v1.5h35v-1.5H105z"/>
<path id="path4060" inkscape:connector-curvature="0" sodipodi:nodetypes="cscccscccc" class="st0" d="M227.6,447.3
	c4.3,0,8.4-1.7,11.4-4.7c6.3-6.3,6.3-16.5,0-22.8c-6.3-6.3-16.5-6.3-22.8,0c-0.9,0.9,0.5,1.7,1.1,1.1c5.7-5.7,14.9-5.7,20.6,0
	c5.7,5.7,5.7,14.9,0,20.5c-2.7,2.7-6.4,4.3-10.3,4.3C226.7,445.8,226.5,447.3,227.6,447.3L227.6,447.3z"/>
<path id="path3137" inkscape:connector-curvature="0" class="st0" d="M119.3,452.1h22.8c0.2,0,0.3,0,0.5,0v0c3.7,0,6.8-3,6.8-6.8
	s-3-6.8-6.8-6.8c-0.5,0-1.1,0.1-1.6,0.2c-0.2,0-0.4,0-0.5-0.1c-0.2-0.1-0.3-0.3-0.3-0.4c-0.8-4.8-4.8-8.3-9.7-8.3
	c-5.4,0-9.8,4.4-9.8,9.8c0,0.3,0,0.5,0,0.8c0,0.2-0.1,0.4-0.2,0.5c-0.1,0.1-0.3,0.2-0.5,0.2c-0.2,0-0.4,0-0.6,0
	c-3,0-5.4,2.4-5.4,5.4C113.9,449.7,116.3,452.1,119.3,452.1 M119.3,440c0,0,0-0.1,0-0.1c0-6.2,5-11.2,11.2-11.2
	c5.3,0,9.8,3.6,10.9,8.7c0.4-0.1,0.8-0.1,1.3-0.1c4.5,0,8.1,3.6,8.1,8.1s-3.6,8.1-8.1,8.1h-6h-17.2c-3.7,0-6.8-3-6.8-6.8
	C112.6,443,115.6,440,119.3,440"/>
<path id="path3171" inkscape:connector-curvature="0" sodipodi:nodetypes="cscccscccc" class="st0" d="M109,450
	c-4.2-1-7.8-3.5-10-7.2c-4.7-7.5-2.3-17.5,5.2-22.2c7.5-4.7,17.5-2.4,22.2,5.2c0.7,1.1-0.8,1.6-1.3,0.8c-4.2-6.8-13.2-8.9-20-4.7
	c-6.8,4.2-8.9,13.2-4.7,20c2,3.3,5.3,5.6,9,6.5C110.3,448.7,110.2,450.2,109,450L109,450z"/>
<path id="path3233" inkscape:connector-curvature="0" class="st0" d="M214.4,515.3c-5.9,0-10.7,4.8-10.7,10.7c0,0.4,0.3,0.8,0.8,0.8
	c0.4,0,0.8-0.3,0.8-0.8c0-5.1,4.1-9.2,9.2-9.2c5.1,0,9.2,4.1,9.2,9.2c0,0.4,0.3,0.8,0.8,0.8c0.4,0,0.8-0.3,0.8-0.8
	C225.1,520.1,220.3,515.3,214.4,515.3L214.4,515.3z"/>
<path id="path3235" inkscape:connector-curvature="0" class="st0" d="M219.6,520.6c-0.4-0.2-0.9,0-1,0.4l-3.5,8.2
	c-0.2,0-0.5-0.1-0.7-0.1c-2.1,0-3.7,1.7-3.7,3.7c0,2.1,1.7,3.7,3.7,3.7c2.1,0,3.7-1.7,3.7-3.7c0-1.3-0.6-2.4-1.6-3.1l3.5-8.2
	C220.2,521.2,220,520.8,219.6,520.6L219.6,520.6z M214.4,535.1c-1.2,0-2.2-1-2.2-2.2c0-1.2,1-2.2,2.2-2.2s2.2,1,2.2,2.2
	S215.6,535.1,214.4,535.1z"/>
<path id="path3247" inkscape:connector-curvature="0" class="st0" d="M214.2,509.8c-8.8,0-16,7.2-16,16s7.2,16,16,16s16-7.2,16-16
	S223.1,509.8,214.2,509.8z M214.2,511.2c8,0,14.5,6.5,14.5,14.5s-6.5,14.5-14.5,14.5c-8,0-14.5-6.5-14.5-14.5
	S206.2,511.2,214.2,511.2z"/>
<path id="path4117" inkscape:connector-curvature="0" class="st0" d="M281.3,523.1c-1,3.4-1.1,7,0.1,10.6
	c2.9,8.5,12.2,13.6,20.9,10.6c7.6-2.6,12.2-11.1,9.4-18.8c-2.4-6.7-9.9-10.8-16.8-8.3c-5.9,2.2-9.4,8.8-7,14.8c1.9,5,7.6,8,12.8,5.9
	c4.1-1.7,6.5-6.5,4.7-10.7c-1.4-3.2-5.4-5.1-8.7-3.4c-1.2,0.6-2.1,1.6-2.6,2.9s-0.4,2.7,0.3,3.9c0.5,0.7,1.3,1.3,2.1,1.5
	c0.9,0.2,2,0.1,2.7-0.7c0.4-0.5,0.5-1,0.5-1.6c0-0.3-0.1-0.6-0.4-0.9s-0.8-0.4-1.2-0.3l0.4,1.5c0.1,0-0.1,0-0.2-0.1
	c-0.1-0.1-0.1-0.1-0.1-0.1c0,0.1-0.2,0.6-0.1,0.5c-0.3,0.4-0.7,0.4-1.2,0.3s-1-0.5-1.2-0.9c-0.5-0.8-0.5-1.7-0.2-2.5s1-1.6,1.8-2.1
	c2.5-1.3,5.6,0.2,6.7,2.7c1.5,3.4-0.5,7.3-3.9,8.7c-4.3,1.8-9.2-0.8-10.8-5c-2-5.2,1.1-10.9,6.2-12.8c6-2.2,12.8,1.4,14.9,7.4
	c2.5,6.9-1.7,14.6-8.5,16.9c-7.8,2.7-16.3-2-18.9-9.7c-2.9-8.7,2.3-18.1,10.8-21c9.5-3.2,19.9,2.5,23,12l1.4-0.5
	c-3.3-10.2-14.5-16.4-24.9-13C287.4,512.7,283,517.5,281.3,523.1L281.3,523.1z"/>
<path id="path4253" inkscape:connector-curvature="0" class="st0" d="M394.5,511.1c-0.3,0-0.7,0.1-1,0.3c-0.3,0.2-0.5,0.5-0.6,0.8v0
	l-4,16.5v0c-0.1,0.5,0.1,1.1,0.5,1.4c0.3,0.3,0.7,0.4,1.1,0.4c0.1,0,0.3,0,0.4-0.1h0l7-1.7l-3.7,15c0,0,0,0,0,0
	c-0.1,0.4,0,0.8,0.2,1.1c0.2,0.3,0.5,0.6,0.9,0.7h0h0.1c0.1,0,0.2,0.1,0.4,0.1c0.6,0,1.2-0.4,1.5-0.9v0l10.8-23.1
	c0.2-0.5,0.1-1.1-0.2-1.5c0,0,0-0.1,0-0.1l-0.2,0.2l0.2-0.2c-0.3-0.3-0.7-0.5-1.2-0.5c-0.2,0-0.3,0-0.4,0.1l-6.7,1.7l2.9-8
	c0,0,0,0,0-0.1c0.1-0.2,0.2-0.4,0.2-0.6c0-0.4-0.2-0.8-0.5-1.1c-0.3-0.3-0.7-0.4-1.1-0.4L394.5,511.1L394.5,511.1z M394.5,512.5h6.6
	c0.1,0,0.1,0,0.2,0.1c0.1,0.1,0,0,0,0.1c0,0,0,0,0,0v0.1l0,0l-3.4,9.2l-0.5,1.2l1.3-0.3l7.9-1.9c0.1,0,0.1,0,0.1,0
	c0.1,0,0.1,0,0.2,0.1c0,0,0,0,0,0c0,0,0.1,0,0,0.1L396,544.2c0,0,0,0,0,0c0,0.1,0,0.1-0.2,0.1c0,0-0.1,0-0.1,0c0,0,0,0-0.1,0
	c0,0,0,0,0-0.1c0,0,0,0,0-0.1l3.9-16.2l0.3-1.1l-1.1,0.3l-8.1,2h0c0.1,0,0,0-0.1,0c-0.1,0-0.1,0-0.2-0.1c-0.1,0,0,0,0-0.1v0l4-16.4
	v0c0,0,0,0,0.1-0.1C394.4,512.5,394.4,512.5,394.5,512.5L394.5,512.5z"/>
<g id="g4354" transform="translate(516.87993,942.13742)">
	<g id="g4356">
	</g>
	<g id="g4360" transform="matrix(4.8320013,0,0,4.8320013,-104.29172,-176.70259)">
		<path id="path4362" inkscape:connector-curvature="0" class="st0" d="M18-52.7l-0.1,0.2L17.5-52h0c-0.2,0.2-0.6,0.9-1,1.7
			s-0.8,1.6-0.8,2.2c0,1.3,1.1,2.3,2.3,2.3c1.3,0,2.3-1.1,2.3-2.3c0-0.6-0.4-1.4-0.8-2.2s-0.9-1.5-1-1.7l-0.4-0.6L18-52.7z M18-52.2
			l0.2,0.4c0.2,0.2,0.6,0.9,1,1.7s0.8,1.6,0.8,2.1c0,1.1-0.9,2-2,2c-1.1,0-2-0.9-2-2c0-0.4,0.3-1.3,0.7-2.1s0.9-1.4,1-1.7L18-52.2z"
			/>
	</g>
	<g id="g4364">
	</g>
</g>
<g id="text4389">
	<path id="path4402" class="st1" d="M175.9,65.8c0.6,0.6,1.1,1.3,1.4,2.1c0.3,0.7,0.4,1.5,0.4,2.3c0,0.8-0.1,1.6-0.4,2.3
		c-0.3,0.8-0.8,1.4-1.4,2l-8.1,7.7h10.2v2h-13v-2l9.6-9c0.4-0.4,0.7-0.9,0.9-1.4c0.2-0.5,0.3-1.1,0.3-1.6c0-0.5-0.1-1.1-0.3-1.6
		c-0.2-0.5-0.5-1-0.9-1.4c-0.4-0.4-0.9-0.7-1.4-0.9c-0.5-0.2-1-0.3-1.6-0.3c-0.5,0-1.1,0.1-1.6,0.3c-0.5,0.2-1,0.5-1.4,0.9
		c-0.4,0.4-0.7,0.8-0.9,1.3c-0.2,0.5-0.3,1-0.4,1.5h-2c0-0.8,0.2-1.5,0.5-2.3c0.3-0.7,0.7-1.4,1.3-2c0.6-0.6,1.3-1.1,2-1.4
		c0.8-0.3,1.5-0.4,2.4-0.4c0.8,0,1.6,0.1,2.3,0.4C174.5,64.7,175.2,65.2,175.9,65.8"/>
	<path id="path4404" class="st1" d="M182.2,70.6c1.2-0.8,2.6-1.1,4-1.1c1.1,0,2.1,0.2,3,0.6c0.9,0.4,1.7,0.9,2.4,1.7
		c0.7,0.7,1.3,1.5,1.7,2.4c0.4,0.9,0.6,1.9,0.6,3c0,1.1-0.2,2.1-0.6,3c-0.4,0.9-0.9,1.8-1.7,2.5c-0.7,0.7-1.5,1.2-2.4,1.6
		c-0.9,0.4-1.9,0.6-3,0.6s-2.1-0.2-3-0.6c-0.9-0.4-1.8-0.9-2.5-1.6c-0.7-0.7-1.2-1.5-1.7-2.5c-0.4-0.9-0.6-1.9-0.6-3h2
		c0,0.8,0.1,1.5,0.4,2.2s0.7,1.3,1.2,1.8c0.5,0.5,1.1,0.9,1.8,1.2c0.7,0.3,1.5,0.4,2.2,0.4c0.8,0,1.5-0.1,2.2-0.4
		c0.7-0.3,1.3-0.7,1.8-1.2c0.5-0.5,0.9-1.1,1.2-1.8c0.3-0.7,0.4-1.5,0.4-2.2c0-0.8-0.1-1.5-0.4-2.2c-0.3-0.7-0.7-1.3-1.2-1.8
		c-0.5-0.5-1.1-0.9-1.8-1.2c-0.7-0.3-1.5-0.4-2.4-0.4c-0.9,0-1.7,0.2-2.5,0.5c-0.8,0.3-1.4,0.8-1.9,1.4h-2l1.7-8.7h9.7v2h-8.2
		L182.2,70.6L182.2,70.6"/>
	<path id="path4406" class="st1" d="M203.7,74.4c0-1.4,0.3-2.8,0.8-4.1c0.6-1.3,1.3-2.4,2.3-3.3c1-1,2.1-1.7,3.3-2.2
		c1.3-0.6,2.6-0.8,4.1-0.8c1.4,0,2.8,0.3,4.1,0.8c1.3,0.5,2.4,1.3,3.3,2.2c1,1,1.7,2.1,2.2,3.3c0.6,1.3,0.8,2.6,0.8,4.1
		c0,1.4-0.3,2.8-0.8,4.1c-0.5,1.3-1.3,2.4-2.2,3.3c-1,1-2.1,1.7-3.3,2.3c-1.3,0.5-2.6,0.8-4.1,0.8c-1.4,0-2.8-0.3-4.1-0.8
		c-1.3-0.6-2.4-1.3-3.3-2.3c-1-1-1.7-2.1-2.3-3.3C204,77.2,203.7,75.9,203.7,74.4 M205.7,74.4c0,1.2,0.2,2.3,0.7,3.3
		c0.4,1,1.1,1.9,1.8,2.7c0.8,0.8,1.7,1.4,2.7,1.8c1,0.4,2.1,0.7,3.3,0.7c1.2,0,2.2-0.2,3.3-0.7c1-0.4,1.9-1.1,2.7-1.8
		c0.8-0.8,1.4-1.7,1.8-2.7c0.4-1,0.7-2.1,0.7-3.3c0-1.2-0.2-2.2-0.7-3.3c-0.4-1-1.1-1.9-1.8-2.7c-0.8-0.8-1.7-1.4-2.7-1.8
		c-1-0.4-2.1-0.7-3.3-0.7c-1.2,0-2.3,0.2-3.3,0.7c-1,0.4-1.9,1.1-2.7,1.8c-0.8,0.8-1.4,1.7-1.8,2.7
		C205.9,72.2,205.7,73.3,205.7,74.4"/>
	<path id="path4408" class="st1" d="M236.4,77.9v-7.7h2v7.7c0,0.9-0.2,1.7-0.5,2.4c-0.3,0.8-0.8,1.4-1.3,2c-0.6,0.6-1.2,1-2,1.3
		c-0.8,0.3-1.6,0.5-2.4,0.5c-0.9,0-1.7-0.2-2.4-0.5s-1.4-0.8-2-1.3c-0.6-0.6-1-1.3-1.3-2s-0.5-1.6-0.5-2.4v0l0-7.7h2l0,7.7v0
		c0,0.6,0.1,1.2,0.3,1.7c0.2,0.5,0.5,1,0.9,1.4c0.4,0.4,0.8,0.7,1.3,0.9c0.5,0.2,1.1,0.3,1.7,0.3s1.2-0.1,1.7-0.3s1-0.5,1.4-0.9
		c0.4-0.4,0.7-0.8,0.9-1.4C236.3,79.1,236.4,78.5,236.4,77.9"/>
	<path id="path4410" class="st1" d="M240.1,72.2v-2h1.4v-5.6h2v5.6h3.7v2h-3.7v12h-2v-12H240.1"/>
	<path id="path4412" class="st1" d="M248.8,64.6h2v19.6h-2V64.6"/>
	<path id="path4414" class="st1" d="M252.7,70.2h2v14h-2V70.2 M252.5,65.8c0-0.3,0.1-0.6,0.3-0.8c0.2-0.2,0.5-0.3,0.8-0.3
		c0.3,0,0.6,0.1,0.8,0.3c0.2,0.2,0.3,0.5,0.3,0.8c0,0.3-0.1,0.6-0.3,0.8c-0.2,0.2-0.5,0.3-0.8,0.3c-0.3,0-0.6-0.1-0.8-0.3
		C252.7,66.4,252.5,66.1,252.5,65.8"/>
	<path id="path4416" class="st1" d="M267.2,75.8c0-0.6-0.1-1.2-0.3-1.7c-0.2-0.5-0.5-1-0.9-1.4c-0.4-0.4-0.8-0.7-1.4-0.9
		c-0.5-0.2-1.1-0.3-1.7-0.3c-0.6,0-1.1,0.1-1.7,0.4s-1,0.6-1.4,1c-0.4,0.4-0.7,0.8-1,1.4c-0.2,0.5-0.3,1.1-0.3,1.6l0,8.4h-2v-14h2
		v1.3c0.2-0.3,0.4-0.6,0.8-0.8c0.3-0.3,0.7-0.5,1-0.6c0.4-0.2,0.8-0.3,1.2-0.4c0.4-0.1,0.9-0.1,1.3-0.1c0.9,0,1.7,0.2,2.4,0.5
		c0.8,0.3,1.4,0.8,2,1.4c0.6,0.6,1,1.2,1.4,2c0.3,0.8,0.5,1.6,0.5,2.4l0,8.4h-2L267.2,75.8"/>
	<path id="path4418" class="st1" d="M272.9,77.2c0,0.8,0.1,1.5,0.4,2.2c0.3,0.7,0.7,1.3,1.2,1.8s1.1,0.9,1.8,1.2
		c0.7,0.3,1.5,0.4,2.2,0.4s1.5-0.1,2.2-0.4c0.7-0.3,1.3-0.7,1.8-1.2c0.4-0.4,0.7-0.8,1-1.3h2.2l-0.1,0.2c-0.4,0.9-0.9,1.8-1.7,2.5
		c-0.7,0.7-1.5,1.2-2.4,1.6c-0.9,0.4-1.9,0.6-3,0.6s-2.1-0.2-3-0.6c-0.9-0.4-1.8-0.9-2.5-1.6c-0.7-0.7-1.2-1.5-1.7-2.5
		c-0.4-0.9-0.6-1.9-0.6-3c0-1.1,0.2-2.1,0.6-3c0.4-0.9,1-1.7,1.7-2.4c0.7-0.7,1.5-1.3,2.5-1.7c0.9-0.4,1.9-0.6,3-0.6
		c1.1,0,2.1,0.2,3,0.6c0.9,0.4,1.7,0.9,2.4,1.7c0.7,0.7,1.3,1.5,1.7,2.4c0.3,0.8,0.5,1.6,0.6,2.4h-13.4
		C272.9,76.8,272.9,77,272.9,77.2 M282.7,73.1c-0.5-0.5-1.1-0.9-1.8-1.2c-0.7-0.3-1.4-0.4-2.2-0.4c-0.8,0-1.5,0.1-2.2,0.4
		c-0.7,0.3-1.3,0.7-1.8,1.2c-0.4,0.4-0.8,1-1.1,1.5h10.3C283.4,74.1,283.1,73.6,282.7,73.1"/>
	<path id="path4420" class="st1" d="M305.6,75.7l-6.2,8.5h-2V64.6h2v16.3l6.2-8.5l6.3,8.5V64.6h2v19.6h-2L305.6,75.7"/>
	<path id="path4422" class="st1" d="M317,77.2c0,0.8,0.1,1.5,0.4,2.2c0.3,0.7,0.7,1.3,1.2,1.8s1.1,0.9,1.8,1.2
		c0.7,0.3,1.5,0.4,2.2,0.4s1.5-0.1,2.2-0.4c0.7-0.3,1.3-0.7,1.8-1.2c0.4-0.4,0.7-0.8,1-1.3h2.2l-0.1,0.2c-0.4,0.9-0.9,1.8-1.7,2.5
		c-0.7,0.7-1.5,1.2-2.4,1.6c-0.9,0.4-1.9,0.6-3,0.6s-2.1-0.2-3-0.6c-0.9-0.4-1.8-0.9-2.5-1.6c-0.7-0.7-1.2-1.5-1.7-2.5
		c-0.4-0.9-0.6-1.9-0.6-3c0-1.1,0.2-2.1,0.6-3c0.4-0.9,1-1.7,1.7-2.4c0.7-0.7,1.5-1.3,2.5-1.7c0.9-0.4,1.9-0.6,3-0.6
		c1.1,0,2.1,0.2,3,0.6c0.9,0.4,1.7,0.9,2.4,1.7c0.7,0.7,1.3,1.5,1.7,2.4c0.3,0.8,0.5,1.6,0.6,2.4h-13.4C317.1,76.8,317,77,317,77.2
		 M326.8,73.1c-0.5-0.5-1.1-0.9-1.8-1.2c-0.7-0.3-1.4-0.4-2.2-0.4c-0.8,0-1.5,0.1-2.2,0.4c-0.7,0.3-1.3,0.7-1.8,1.2
		c-0.4,0.4-0.8,1-1.1,1.5h10.3C327.6,74.1,327.3,73.6,326.8,73.1"/>
	<path id="path4424" class="st1" d="M331.8,77.2c0-1.1,0.2-2.1,0.6-3c0.4-0.9,1-1.7,1.7-2.4c0.7-0.7,1.5-1.3,2.5-1.7
		c0.9-0.4,1.9-0.6,3-0.6c1.1,0,2.1,0.2,3,0.6c0.9,0.4,1.7,0.9,2.4,1.7c0.7,0.7,1.3,1.5,1.7,2.4c0.4,0.9,0.6,1.9,0.6,3v7h-2v-1.9
		c-0.1,0.1-0.2,0.2-0.3,0.3c-0.7,0.7-1.5,1.2-2.4,1.6c-0.9,0.4-1.9,0.6-3,0.6s-2.1-0.2-3-0.6c-0.9-0.4-1.8-0.9-2.5-1.6
		c-0.7-0.7-1.2-1.5-1.7-2.5C332,79.2,331.8,78.3,331.8,77.2 M333.8,77.2c0,0.8,0.1,1.5,0.4,2.2c0.3,0.7,0.7,1.3,1.2,1.8
		s1.1,0.9,1.8,1.2c0.7,0.3,1.5,0.4,2.2,0.4s1.5-0.1,2.2-0.4c0.7-0.3,1.3-0.7,1.8-1.2s0.9-1.1,1.2-1.8c0.3-0.6,0.4-1.3,0.4-2v-0.3
		c0-0.8-0.1-1.5-0.4-2.2c-0.3-0.7-0.7-1.3-1.2-1.8c-0.5-0.5-1.1-0.9-1.8-1.2c-0.7-0.3-1.4-0.4-2.2-0.4c-0.8,0-1.5,0.1-2.2,0.4
		c-0.7,0.3-1.3,0.7-1.8,1.2c-0.5,0.5-0.9,1.1-1.2,1.8C333.9,75.7,333.8,76.4,333.8,77.2"/>
	<path id="path4426" class="st1" d="M348,72.2v-2h1.4v-5.6h2v5.6h3.7v2h-3.7v12h-2v-12H348"/>
	<path id="path4428" class="st1" d="M356.7,64.6h2v6.8c0.2-0.3,0.5-0.6,0.8-0.8c0.3-0.2,0.7-0.4,1-0.6c0.4-0.2,0.8-0.3,1.2-0.4
		c0.4-0.1,0.8-0.1,1.2-0.1c0.9,0,1.7,0.2,2.4,0.5c0.8,0.3,1.4,0.8,2,1.4c0.6,0.6,1,1.2,1.4,2c0.3,0.8,0.5,1.6,0.5,2.4v0l0,8.4h-2
		l0-8.4v0c0-0.6-0.1-1.2-0.3-1.7c-0.2-0.5-0.5-1-0.9-1.3c-0.4-0.4-0.8-0.7-1.4-0.9c-0.5-0.2-1.1-0.3-1.7-0.3c-0.6,0-1.1,0.1-1.6,0.4
		c-0.5,0.2-1,0.6-1.3,1c-0.4,0.4-0.7,0.8-0.9,1.4c-0.2,0.5-0.3,1-0.3,1.6v8.4h-2V64.6"/>
	<path id="path4430" class="st1" d="M373.2,77.2c0,0.8,0.1,1.5,0.4,2.2c0.3,0.7,0.7,1.3,1.2,1.8s1.1,0.9,1.8,1.2
		c0.7,0.3,1.5,0.4,2.2,0.4s1.5-0.1,2.2-0.4c0.7-0.3,1.3-0.7,1.8-1.2c0.4-0.4,0.7-0.8,1-1.3h2.2l-0.1,0.2c-0.4,0.9-0.9,1.8-1.7,2.5
		c-0.7,0.7-1.5,1.2-2.4,1.6c-0.9,0.4-1.9,0.6-3,0.6s-2.1-0.2-3-0.6c-0.9-0.4-1.8-0.9-2.5-1.6c-0.7-0.7-1.2-1.5-1.7-2.5
		c-0.4-0.9-0.6-1.9-0.6-3c0-1.1,0.2-2.1,0.6-3c0.4-0.9,1-1.7,1.7-2.4c0.7-0.7,1.5-1.3,2.5-1.7c0.9-0.4,1.9-0.6,3-0.6
		c1.1,0,2.1,0.2,3,0.6c0.9,0.4,1.7,0.9,2.4,1.7c0.7,0.7,1.3,1.5,1.7,2.4c0.3,0.8,0.5,1.6,0.6,2.4h-13.4
		C373.2,76.8,373.2,77,373.2,77.2 M383,73.1c-0.5-0.5-1.1-0.9-1.8-1.2c-0.7-0.3-1.4-0.4-2.2-0.4c-0.8,0-1.5,0.1-2.2,0.4
		c-0.7,0.3-1.3,0.7-1.8,1.2c-0.4,0.4-0.8,1-1.1,1.5H384C383.7,74.1,383.4,73.6,383,73.1"/>
	<path id="path4432" class="st1" d="M388.3,70.2h2v2.7c0.1-0.2,0.2-0.3,0.3-0.4c0.7-0.7,1.5-1.3,2.5-1.7c0.9-0.4,1.9-0.6,3-0.6v2
		c-0.8,0-1.5,0.1-2.2,0.4c-0.7,0.3-1.3,0.7-1.8,1.2c-0.5,0.5-0.9,1.1-1.2,1.8c-0.3,0.7-0.4,1.4-0.4,2.2v6.4h-2L388.3,70.2"/>
	<path id="path4434" class="st1" d="M407.3,64.6h2v19.6h-2V64.6"/>
	<path id="path4436" class="st1" d="M412.4,77.2c0,0.8,0.1,1.5,0.4,2.2c0.3,0.7,0.7,1.3,1.2,1.8s1.1,0.9,1.8,1.2
		c0.7,0.3,1.5,0.4,2.2,0.4s1.5-0.1,2.2-0.4c0.7-0.3,1.3-0.7,1.8-1.2c0.4-0.4,0.7-0.8,1-1.3h2.2l-0.1,0.2c-0.4,0.9-0.9,1.8-1.7,2.5
		c-0.7,0.7-1.5,1.2-2.4,1.6c-0.9,0.4-1.9,0.6-3,0.6s-2.1-0.2-3-0.6c-0.9-0.4-1.8-0.9-2.5-1.6c-0.7-0.7-1.2-1.5-1.7-2.5
		c-0.4-0.9-0.6-1.9-0.6-3c0-1.1,0.2-2.1,0.6-3c0.4-0.9,1-1.7,1.7-2.4c0.7-0.7,1.5-1.3,2.5-1.7c0.9-0.4,1.9-0.6,3-0.6
		c1.1,0,2.1,0.2,3,0.6c0.9,0.4,1.7,0.9,2.4,1.7c0.7,0.7,1.3,1.5,1.7,2.4l0.1,0.2h-2.2c-0.2-0.5-0.6-0.9-0.9-1.3
		c-0.5-0.5-1.1-0.9-1.8-1.2c-0.7-0.3-1.4-0.4-2.2-0.4c-0.8,0-1.5,0.1-2.2,0.4c-0.7,0.3-1.3,0.7-1.8,1.2c-0.5,0.5-0.9,1.1-1.2,1.8
		C412.5,75.7,412.4,76.4,412.4,77.2"/>
	<path id="path4438" class="st1" d="M426.6,77.2c0-1.1,0.2-2.1,0.6-3c0.4-0.9,1-1.7,1.7-2.4c0.7-0.7,1.5-1.3,2.5-1.7
		c0.9-0.4,1.9-0.6,3-0.6c1.1,0,2.1,0.2,3,0.6c0.9,0.4,1.7,0.9,2.4,1.7c0.7,0.7,1.3,1.5,1.7,2.4c0.4,0.9,0.6,1.9,0.6,3
		s-0.2,2.1-0.6,3c-0.4,0.9-0.9,1.8-1.7,2.5c-0.7,0.7-1.5,1.2-2.4,1.6c-0.9,0.4-1.9,0.6-3,0.6s-2.1-0.2-3-0.6
		c-0.9-0.4-1.8-0.9-2.5-1.6c-0.7-0.7-1.2-1.5-1.7-2.5C426.8,79.2,426.6,78.3,426.6,77.2 M428.6,77.2c0,0.8,0.1,1.5,0.4,2.2
		c0.3,0.7,0.7,1.3,1.2,1.8s1.1,0.9,1.8,1.2c0.7,0.3,1.5,0.4,2.2,0.4s1.5-0.1,2.2-0.4c0.7-0.3,1.3-0.7,1.8-1.2s0.9-1.1,1.2-1.8
		c0.3-0.7,0.4-1.5,0.4-2.2s-0.1-1.5-0.4-2.2c-0.3-0.7-0.7-1.3-1.2-1.8c-0.5-0.5-1.1-0.9-1.8-1.2c-0.7-0.3-1.4-0.4-2.2-0.4
		c-0.8,0-1.5,0.1-2.2,0.4c-0.7,0.3-1.3,0.7-1.8,1.2c-0.5,0.5-0.9,1.1-1.2,1.8C428.7,75.7,428.6,76.4,428.6,77.2"/>
	<path id="path4440" class="st1" d="M454.4,75.8c0-0.6-0.1-1.2-0.3-1.7c-0.2-0.5-0.5-1-0.9-1.4c-0.4-0.4-0.8-0.7-1.4-0.9
		c-0.5-0.2-1.1-0.3-1.7-0.3c-0.6,0-1.1,0.1-1.7,0.4s-1,0.6-1.4,1c-0.4,0.4-0.7,0.8-1,1.4c-0.2,0.5-0.3,1.1-0.3,1.6l0,8.4h-2v-14h2
		v1.3c0.2-0.3,0.4-0.6,0.8-0.8c0.3-0.3,0.7-0.5,1-0.6c0.4-0.2,0.8-0.3,1.2-0.4c0.4-0.1,0.9-0.1,1.3-0.1c0.9,0,1.7,0.2,2.4,0.5
		c0.8,0.3,1.4,0.8,2,1.4c0.6,0.6,1,1.2,1.4,2c0.3,0.8,0.5,1.6,0.5,2.4l0,8.4h-2L454.4,75.8"/>
	<path id="path4442" class="st1" d="M466.2,80.7c0-0.6-0.1-1.1-0.4-1.5c-0.2-0.4-0.6-0.6-1.1-0.9c-0.5-0.2-1.1-0.4-1.8-0.6
		c-0.7-0.2-1.4-0.4-2-0.7s-1.1-0.7-1.6-1.2c-0.4-0.5-0.7-1.2-0.8-2c-0.1-0.6,0-1.2,0.3-1.7c0.2-0.5,0.6-1,1-1.4c0.4-0.4,1-0.7,1.6-1
		c0.6-0.3,1.3-0.4,1.9-0.4c0.7,0,1.4,0.1,1.9,0.4c0.6,0.2,1,0.6,1.4,1c0.4,0.4,0.7,0.8,0.9,1.1c0.2,0.4,0.4,0.7,0.4,1h-2.1
		c-0.2-0.5-0.5-1-1-1.2c-0.5-0.3-1-0.4-1.5-0.4c-0.4,0-0.8,0.1-1.2,0.2c-0.4,0.1-0.8,0.4-1.2,0.9c-0.4,0.4-0.5,0.9-0.4,1.4
		c0.1,0.4,0.3,0.8,0.6,1c0.4,0.2,0.8,0.5,1.4,0.7c0.6,0.2,1.2,0.4,1.9,0.6s1.3,0.5,1.9,0.9c0.6,0.4,1.1,0.8,1.4,1.4
		c0.3,0.6,0.5,1.3,0.5,2.2c0,0.7-0.1,1.2-0.4,1.8c-0.3,0.5-0.6,1-1.1,1.3c-0.4,0.4-1,0.6-1.6,0.8c-0.6,0.2-1.2,0.3-1.9,0.3
		s-1.3-0.1-1.9-0.4c-0.6-0.2-1.2-0.5-1.7-1c-0.5-0.4-0.9-0.9-1.2-1.5c-0.3-0.6-0.4-1.3-0.4-2.1h2c0,0.5,0.1,0.9,0.3,1.4
		c0.2,0.4,0.6,0.8,1.1,1.1c0.5,0.3,1.2,0.5,2,0.5c0.9,0,1.6-0.2,2-0.6C465.9,81.9,466.2,81.3,466.2,80.7"/>
</g>
</svg>
